<svg version="1.1" id="PizzaPattern" xmlns="http://www.w3.org/2000/svg" xmlns:xlink="http://www.w3.org/1999/xlink" x="0px" y="0px" viewBox="0 0 512 512" style="enable-background:new 0 0 512 512;" xml:space="preserve">
	<g>
		<g>
			<g>
				<path fill="currentColor" d="M69.7,488.7L69.7,488.7c-2.6,1.6-5.8,2.7-7,2.8c-3.5,0.5-14.4-5.5-18.6-37.8
				c-2.4-18.4-0.1-32.1,2.9-37.1c0.5-0.8,1.1-1.4,1.9-1.8c3.1-1.9,7.6-0.9,10.5,0.5c1.3,0.6,4.5,2.4,4.8,5c0.2,1.3-0.1,2.8-0.4,4.8
				c-0.7,4.6-2,12.2-0.2,26c1.8,14.1,5.6,20.7,8.2,25.1c1,1.8,1.9,3.2,2.3,4.7C74.7,482.9,74.4,485.8,69.7,488.7z M50.7,417.7
				c-0.3,0.2-0.6,0.5-0.8,0.8c-2.3,3.7-4.9,16.1-2.5,34.9c4.2,32.5,14.8,34.9,14.9,34.9c0.5-0.1,3.2-0.9,5.6-2.4
				c1.3-0.8,3.5-2.4,3.1-4c-0.3-1.1-1.1-2.4-2-4c-2.7-4.6-6.7-11.5-8.6-26.3c-1.9-14.3-0.6-22.2,0.2-27c0.3-1.8,0.5-3.1,0.4-3.9
				c0-0.4-0.8-1.4-3-2.5C55.2,417,52.2,416.8,50.7,417.7z" />
			</g>
			<g>
				<path fill="currentColor" d="M119.6,458.4c-3.8,2.3-8.4,5-14,8.1c-15.9,8.7-32.1,16.4-32.2,16.5c-0.8,0.4-1.8,0-2.2-0.8
				c-0.4-0.8,0-1.8,0.8-2.2c0.2-0.1,16.3-7.8,32.1-16.4c30.2-16.6,30.7-21.1,30.6-21.6c0-0.5-1.4-4.7-35.9-12.5
				c-18-4.1-36.2-7.2-36.4-7.2c-0.9-0.2-1.5-1-1.4-1.9c0.2-0.9,1-1.5,1.9-1.4c0.2,0,18.4,3.1,36.5,7.2c37.7,8.6,38.2,13.4,38.4,15.4
				C138,443.3,138.4,446.8,119.6,458.4z" />
			</g>
			<g>
				<path fill="currentColor" d="M75.8,461.3c-1.2,0.9-1.8,2.7-1.1,4.1c0.2,0.4,0.5,0.8,0.8,1.1c0.6,0.7,1.4,1.2,2.3,1.4
				c1.6,0.2,3.2-0.7,3.8-2.2c0.4-0.9,0.4-1.9,0-2.8c-0.3-0.8-1.1-1.7-1.9-1.9c-0.1,0-0.1,0-0.2,0C78.4,460.3,76.9,460.5,75.8,461.3z
				" />
			</g>
			<g>
				<path fill="currentColor" d="M68.2,451c0.3,2.2,3.6,1.7,3.3-0.4C71.3,448.4,67.9,448.8,68.2,451z" />
			</g>
			<g>
				<path fill="currentColor" d="M77.3,435.2c0.2,1.8,2,3.1,3.8,2.9c1.8-0.2,3.1-2,2.9-3.8c-0.2-1.8-2-3.1-3.8-2.9
				C78.4,431.7,77,433.4,77.3,435.2z" />
			</g>
			<g>
				<path fill="currentColor" d="M84,451.6c0.2,1.2,1.3,2.1,2.5,2c1.2-0.2,2.1-1.3,2-2.5c-0.2-1.2-1.3-2.1-2.5-2
				C84.7,449.2,83.8,450.4,84,451.6z" />
			</g>
			<g>
				<path fill="currentColor" d="M98.1,456.3c0.2,1.6,2.7,1.3,2.5-0.3C100.4,454.4,97.9,454.7,98.1,456.3z" />
			</g>
			<g>
				<path fill="currentColor" d="M94.1,436C94.1,436.1,94,436.1,94.1,436c-1.6,1-1.2,3.7,0.4,4.2c0,0,0.1,0,0.1,0
				c0.9,0.3,1.7,0.3,2.5-0.3c0.7-0.5,1-1.4,0.9-2.3c-0.1-0.9-0.7-1.6-1.5-2C95.7,435.3,94.9,435.6,94.1,436z" />
			</g>
			<g>
				<path fill="currentColor" d="M110.4,442c0,0-0.1,0-0.1,0.1c-0.7,0.3-1.2,0.8-1.5,1.5c-0.4,0.9-0.3,2,0.4,2.8c0,0,0,0.1,0.1,0.1
				c1.3,1.6,4,1.4,4.9-0.6c0.4-0.9,0.3-2-0.4-2.8C113,442,111.5,441.5,110.4,442z" />
			</g>
			<g>
				<path fill="currentColor" d="M120.9,444.1c0.2,1.2,1.2,2,2.4,1.9c1.2-0.2,2-1.2,1.9-2.4c-0.2-1.2-1.2-2-2.4-1.9
				C121.5,441.9,120.7,443,120.9,444.1z" />
			</g>
			<g>
				<path fill="currentColor" d="M69.5,434.6c-0.7,0.5-1,1.6-0.6,2.3c0.2,0.5,0.6,0.8,1.1,1c0.5,0.2,1,0.1,1.5,0
				c0.6-0.2,1-0.9,1.1-1.5c0.1-0.7-0.2-1.3-0.7-1.7c-0.1-0.1-0.3-0.2-0.5-0.3C70.8,434.2,70.1,434.2,69.5,434.6z" />
			</g>
			<g>
				<path fill="currentColor" d="M70.2,487.8c-0.5,0.3-1.1,0.3-1.6,0.1c-6.6-3.2-12.9-6.9-18.9-11.1c-0.7-0.5-0.9-1.6-0.4-2.3
				c0.5-0.7,1.6-0.9,2.3-0.4c5.8,4.1,12,7.8,18.4,10.9c0.8,0.4,1.2,1.4,0.8,2.2C70.7,487.4,70.4,487.7,70.2,487.8z" />
			</g>
			<g>
				<path fill="currentColor" d="M67.4,471.5c-0.5,0.3-1.1,0.3-1.6,0.1c-6.5-3.1-13-6.6-19.3-10.2c-0.8-0.5-1.1-1.5-0.6-2.3
				c0.5-0.8,1.5-1.1,2.3-0.6c6.2,3.6,12.7,7,19.1,10.1c0.8,0.4,1.2,1.4,0.8,2.2C67.9,471.1,67.6,471.3,67.4,471.5z" />
			</g>
			<g>
				<path fill="currentColor" d="M62.3,454.9c-0.6,0.4-1.4,0.3-1.9-0.1c-5-4.1-10.4-7.9-16-11.1c-0.8-0.5-1.1-1.5-0.6-2.3
				c0.5-0.8,1.5-1.1,2.3-0.6c5.8,3.3,11.3,7.2,16.5,11.4c0.7,0.6,0.8,1.6,0.2,2.3C62.6,454.6,62.4,454.8,62.3,454.9z" />
			</g>
			<g>
				<path fill="currentColor" d="M61.4,440.6c-0.6,0.4-1.4,0.3-2-0.2c-3.8-3.5-8-6.7-12.4-9.4c-0.8-0.5-1.9-1.2-2.4-2.4
				c-0.4-0.8,0.1-1.8,0.9-2.2c0.8-0.4,1.8,0,2.2,0.9c0.1,0.3,0.7,0.6,1.1,0.9c4.6,2.9,8.9,6.2,12.9,9.8c0.7,0.6,0.7,1.7,0.1,2.3
				C61.6,440.4,61.5,440.5,61.4,440.6z" />
			</g>
			<g>
				<path fill="currentColor" d="M62.1,429.1c-0.3,0.2-0.8,0.3-1.2,0.2c-1.2-0.2-2-1-2.6-1.5l-10.4-8.9c-0.7-0.6-0.8-1.6-0.2-2.3
				c0.6-0.7,1.6-0.8,2.3-0.2l10.4,8.9c0.4,0.3,0.8,0.7,1.1,0.8c0.9,0.2,1.5,1,1.3,1.9C62.8,428.5,62.5,428.9,62.1,429.1z" />
			</g>
		</g>
		<g>
			<g>
				<path fill="currentColor" d="M289.2,490.3c-5.1-2.2-5.8-5.1-5.5-7c0.2-1.5,0.9-3.1,1.6-5c1.9-4.7,4.8-11.7,4.7-25.9
				c-0.1-14-2.3-21.3-3.7-25.8c-0.6-2-1-3.4-1.1-4.7c0-2.6,2.9-4.8,4.1-5.6c2.7-1.8,7-3.4,10.3-1.9c0.8,0.4,1.5,0.9,2.1,1.6
				c3.7,4.5,7.8,17.8,7.9,36.3c0.2,32.5-9.8,39.9-13.3,40C295.3,492.2,292,491.5,289.2,490.3z M298.5,417.4c-1.6-0.7-4.6,0-7.2,1.6
				c-2,1.3-2.6,2.5-2.6,2.9c0,0.8,0.4,2,0.9,3.8c1.4,4.6,3.7,12.3,3.8,26.7c0.1,14.9-2.9,22.3-5,27.2c-0.7,1.7-1.3,3.1-1.4,4.2
				c-0.2,1.6,2.1,2.9,3.6,3.5c2.6,1.1,5.4,1.6,5.9,1.6c0,0,10.2-3.8,10-36.6c-0.1-18.9-4.4-30.8-7.2-34.2
				C299.1,417.7,298.8,417.5,298.5,417.4z" />
			</g>
			<g>
				<path fill="currentColor" d="M235.7,467c-20.2-8.9-20.3-12.4-20.4-14.1c-0.1-2-0.2-6.8,36-20.5c17.4-6.5,35-12.1,35.2-12.1
				c0.9-0.3,1.8,0.2,2.1,1.1c0.3,0.9-0.2,1.8-1.1,2.1c-0.2,0.1-17.8,5.5-35.1,12.1c-33,12.4-33.8,16.8-33.8,17.2
				c0,0.5,1.1,4.9,33.2,17.2c16.8,6.5,33.8,11.9,34,11.9c0.9,0.3,1.4,1.2,1.1,2.1c-0.3,0.9-1.2,1.4-2.1,1.1
				c-0.2-0.1-17.3-5.5-34.2-12C244.7,470.8,239.8,468.8,235.7,467z" />
			</g>
			<g>
				<path fill="currentColor" d="M279.4,464c1.3,0.7,2.1,2.4,1.6,3.9c-0.2,0.4-0.4,0.8-0.7,1.2c-0.5,0.8-1.2,1.4-2.1,1.7
				c-1.6,0.4-3.3-0.2-4.1-1.6c-0.5-0.8-0.6-1.8-0.4-2.8c0.2-0.8,0.8-1.8,1.6-2.2c0.1,0,0.1,0,0.2-0.1
				C276.7,463.3,278.2,463.3,279.4,464z" />
			</g>
			<g>
				<path fill="currentColor" d="M285.6,452.7c0,2.2-3.4,2.2-3.4,0C282.2,450.5,285.6,450.5,285.6,452.7z" />
			</g>
			<g>
				<path fill="currentColor" d="M274.5,438.3c0,1.8-1.5,3.4-3.4,3.4c-1.8,0-3.4-1.5-3.4-3.4c0-1.8,1.5-3.4,3.4-3.4
				C272.9,435,274.5,436.5,274.5,438.3z" />
			</g>
			<g>
				<path fill="currentColor" d="M270,455.5c0,1.2-1,2.3-2.3,2.3c-1.2,0-2.3-1-2.3-2.3c0-1.2,1-2.3,2.3-2.3
				C269,453.2,270,454.2,270,455.5z" />
			</g>
			<g>
				<path fill="currentColor" d="M256.7,462c0,1.6-2.5,1.6-2.5,0C254.2,460.4,256.7,460.4,256.7,462z" />
			</g>
			<g>
				<path fill="currentColor" d="M257.9,441.4C258,441.4,258,441.4,257.9,441.4c1.7,0.8,1.7,3.5,0.1,4.2c0,0-0.1,0-0.1,0
				c-0.8,0.4-1.7,0.5-2.5,0c-0.8-0.4-1.2-1.3-1.2-2.1c0-0.9,0.5-1.7,1.2-2.1C256.2,440.9,257.1,441,257.9,441.4z" />
			</g>
			<g>
				<path fill="currentColor" d="M242.5,449.6c0,0,0.1,0,0.1,0c0.7,0.3,1.3,0.6,1.7,1.3c0.5,0.8,0.5,1.9,0,2.8c0,0,0,0.1-0.1,0.1
				c-1.1,1.8-3.8,1.9-4.9,0c-0.5-0.9-0.5-2,0-2.9C239.9,449.9,241.4,449.1,242.5,449.6z" />
			</g>
			<g>
				<path fill="currentColor" d="M232.5,453c0,1.2-1,2.2-2.1,2.2c-1.2,0-2.2-1-2.2-2.1c0-1.2,1-2.2,2.1-2.2
				C231.5,450.9,232.5,451.9,232.5,453z" />
			</g>
			<g>
				<path fill="currentColor" d="M282.1,436.7c0.8,0.4,1.2,1.4,0.9,2.2c-0.2,0.5-0.5,0.9-0.9,1.1c-0.5,0.3-1,0.3-1.5,0.2
				c-0.6-0.1-1.1-0.7-1.3-1.3c-0.2-0.6,0-1.3,0.5-1.8c0.1-0.1,0.3-0.2,0.4-0.3C280.7,436.4,281.5,436.3,282.1,436.7z" />
			</g>
			<g>
				<path fill="currentColor" d="M288.6,489.5c-0.3-0.1-0.5-0.3-0.7-0.6c-0.5-0.8-0.3-1.8,0.5-2.3c5.9-3.9,11.6-8.4,16.7-13.2
				c0.7-0.6,1.7-0.6,2.3,0.1c0.6,0.7,0.6,1.7-0.1,2.3c-5.3,5-11.1,9.6-17.2,13.6C289.7,489.7,289.1,489.7,288.6,489.5z" />
			</g>
			<g>
				<path fill="currentColor" d="M289.2,472.9c-0.3-0.1-0.5-0.3-0.7-0.6c-0.5-0.8-0.3-1.8,0.5-2.3c6-3.9,11.9-8.2,17.6-12.6
				c0.7-0.6,1.8-0.4,2.3,0.3c0.6,0.7,0.4,1.8-0.3,2.3c-5.7,4.4-11.7,8.7-17.8,12.7C290.3,473.1,289.7,473.1,289.2,472.9z" />
			</g>
			<g>
				<path fill="currentColor" d="M292,455.7c-0.2-0.1-0.3-0.2-0.5-0.3c-0.7-0.6-0.7-1.7-0.1-2.3c4.5-4.9,9.5-9.5,14.8-13.6
				c0.7-0.6,1.8-0.4,2.3,0.3c0.6,0.7,0.4,1.8-0.3,2.3c-5.1,4-10,8.4-14.4,13.2C293.4,455.9,292.6,456,292,455.7z" />
			</g>
			<g>
				<path fill="currentColor" d="M290.9,441.5c-0.1-0.1-0.3-0.1-0.4-0.2c-0.7-0.6-0.8-1.6-0.2-2.3c3.4-4.2,7.3-8,11.5-11.5
				c0.4-0.3,0.9-0.7,1-1c0.2-0.9,1.1-1.4,2-1.2c0.9,0.2,1.4,1.1,1.2,2c-0.4,1.3-1.3,2.1-2.1,2.7c-4,3.3-7.7,7-11,11
				C292.4,441.6,291.6,441.8,290.9,441.5z" />
			</g>
			<g>
				<path fill="currentColor" d="M288.7,430.2c-0.4-0.2-0.7-0.5-0.9-1c-0.3-0.9,0.2-1.8,1-2.1c0.3-0.1,0.7-0.5,1-0.9l9.1-10.3
				c0.6-0.7,1.7-0.7,2.3-0.1c0.7,0.6,0.7,1.7,0.1,2.3l-9.1,10.3c-0.5,0.6-1.3,1.4-2.4,1.8C289.5,430.4,289,430.4,288.7,430.2z" />
			</g>
		</g>
		<g>
			<g>
				<path fill="currentColor" d="M376.5,294.3c5.3-1.7,7.7,0,8.8,1.7c0.8,1.3,1.4,2.9,2,4.8c1.6,4.8,4.1,12,13.5,22.7
				c9.2,10.5,15.8,14.6,19.7,17c1.8,1.1,3,1.9,3.9,2.9c1.7,2,1,5.5,0.6,7c-0.9,3.1-3.1,7.1-6.5,8.2c-0.9,0.3-1.7,0.3-2.6,0.2
				c-5.8-0.9-17.6-8.3-29.8-22.2c-21.5-24.4-18.8-36.5-16.2-38.9C370.7,296.9,373.6,295.2,376.5,294.3z M417.4,355.4
				c1.7-0.5,3.5-3,4.3-5.9c0.6-2.3,0.4-3.6,0.1-3.9c-0.5-0.6-1.6-1.3-3.2-2.3c-4.1-2.5-10.9-6.8-20.4-17.6
				c-9.8-11.2-12.4-18.8-14.1-23.8c-0.6-1.8-1.1-3.2-1.7-4.1c-0.9-1.3-3.5-0.8-5-0.3c-2.7,0.8-5.1,2.3-5.5,2.7
				c0,0-5.2,9.6,16.5,34.2c12.5,14.2,23.5,20.4,27.9,21.1C416.7,355.5,417,355.5,417.4,355.4z" />
			</g>
			<g>
				<path fill="currentColor" d="M432.2,276.8c21.1-6.5,23.5-3.9,24.6-2.7c1.4,1.5,4.7,5-13.7,39c-8.8,16.3-18.5,32.1-18.6,32.3
				c-0.5,0.8-1.5,1-2.3,0.5c-0.8-0.5-1-1.5-0.5-2.3c0.1-0.2,9.8-15.8,18.6-32.1c16.8-31,14.5-34.9,14.2-35.2c-0.3-0.3-4-3-36.4,8.8
				c-16.9,6.2-33.3,13.2-33.5,13.3c-0.8,0.4-1.8,0-2.2-0.9c-0.4-0.8,0-1.8,0.9-2.2c0.2-0.1,16.6-7.2,33.7-13.4
				C422.9,279.8,427.9,278.1,432.2,276.8z" />
			</g>
			<g>
				<path fill="currentColor" d="M401.2,307.7c-1.5,0.3-3.2-0.4-3.8-1.9c-0.2-0.4-0.3-0.9-0.2-1.3c-0.2-0.9,0-1.9,0.5-2.7
				c0.9-1.4,2.6-2,4.2-1.4c0.9,0.3,1.7,1,2.1,1.8c0.4,0.8,0.5,1.9,0.2,2.7c0,0.1-0.1,0.1-0.1,0.2
				C403.7,306.5,402.5,307.5,401.2,307.7z" />
			</g>
			<g>
				<path fill="currentColor" d="M403.9,320.3c-1.4-1.6,1.1-3.9,2.5-2.2C407.9,319.7,405.4,321.9,403.9,320.3z" />
			</g>
			<g>
				<path fill="currentColor" d="M421.8,323.8c-1.2-1.4-1.1-3.5,0.3-4.8c1.4-1.2,3.5-1.1,4.8,0.3c1.2,1.4,1.1,3.5-0.3,4.8
				C425.1,325.4,423,325.2,421.8,323.8z" />
			</g>
			<g>
				<path fill="currentColor" d="M413.9,308c-0.8-0.9-0.7-2.4,0.2-3.2c0.9-0.8,2.4-0.7,3.2,0.2c0.8,0.9,0.7,2.4-0.2,3.2
				C416.2,309,414.7,308.9,413.9,308z" />
			</g>
			<g>
				<path fill="currentColor" d="M419.7,294.3c-1.1-1.2,0.8-2.8,1.9-1.6C422.6,293.9,420.7,295.5,419.7,294.3z" />
			</g>
			<g>
				<path fill="currentColor" d="M432.2,310.7c0,0-0.1,0-0.1,0c-1.7,0.5-3.5-1.5-2.8-3.1c0,0,0-0.1,0-0.1c0.4-0.8,0.9-1.5,1.9-1.6
				c0.9-0.2,1.8,0.1,2.3,0.8c0.6,0.7,0.8,1.6,0.5,2.4C433.8,309.9,433.1,310.4,432.2,310.7z" />
			</g>
			<g>
				<path fill="currentColor" d="M438.5,294.4c0,0-0.1,0-0.1,0c-0.7,0.3-1.3,0.4-2.1,0.1c-0.9-0.3-1.7-1.1-1.8-2.1c0,0,0-0.1,0-0.1
				c-0.4-2.1,1.6-3.9,3.7-3.2c1,0.3,1.7,1.2,1.9,2.2C440.3,292.5,439.7,294,438.5,294.4z" />
			</g>
			<g>
				<path fill="currentColor" d="M443.8,285.2c-0.8-0.9-0.7-2.3,0.2-3c0.9-0.8,2.3-0.7,3,0.2c0.8,0.9,0.7,2.3-0.2,3
				C445.9,286.2,444.6,286.1,443.8,285.2z" />
			</g>
			<g>
				<path fill="currentColor" d="M417.1,330.1c-0.9,0.2-1.8-0.3-2.2-1.1c-0.2-0.5-0.2-0.9-0.1-1.5c0.2-0.5,0.6-0.9,1-1.1
				c0.5-0.3,1.3-0.2,1.8,0.1c0.6,0.4,0.9,1,0.8,1.7c0,0.2-0.1,0.4-0.1,0.5C418.3,329.4,417.8,329.9,417.1,330.1z" />
			</g>
			<g>
				<path fill="currentColor" d="M377.5,294.5c0.3-0.1,0.6-0.1,0.9,0c0.9,0.2,1.4,1.2,1.1,2c-1.9,6.8-3.2,13.9-4,21
				c-0.1,0.9-0.9,1.6-1.8,1.5c-0.9-0.1-1.6-0.9-1.5-1.8c0.7-7.3,2.1-14.5,4.1-21.5C376.6,295.1,377,294.7,377.5,294.5z" />
			</g>
			<g>
				<path fill="currentColor" d="M388,307.4c0.3-0.1,0.6-0.1,0.9,0c0.9,0.2,1.4,1.2,1.1,2c-1.9,6.9-3.6,14-5,21
				c-0.2,0.9-1.1,1.5-1.9,1.3c-0.9-0.2-1.5-1.1-1.3-1.9c1.4-7.1,3.1-14.3,5.1-21.3C387,308,387.4,307.5,388,307.4z" />
			</g>
			<g>
				<path fill="currentColor" d="M397.1,322.2c0.2-0.1,0.4-0.1,0.5-0.1c0.9,0,1.6,0.8,1.6,1.7c-0.2,6.7-1,13.4-2.3,19.9
				c-0.2,0.9-1.1,1.5-1.9,1.3c-0.9-0.2-1.5-1.1-1.3-1.9c1.3-6.4,2-12.9,2.2-19.4C396,323,396.5,322.4,397.1,322.2z" />
			</g>
			<g>
				<path fill="currentColor" d="M407.3,332.3c0.1,0,0.3-0.1,0.5-0.1c0.9,0,1.7,0.7,1.7,1.6c0.1,5.4-0.3,10.8-1.1,16.2
				c-0.1,0.5-0.2,1.2-0.1,1.4c0.4,0.8,0.1,1.8-0.8,2.2c-0.8,0.4-1.8,0.1-2.2-0.8c-0.6-1.2-0.4-2.5-0.2-3.4
				c0.8-5.1,1.2-10.4,1.1-15.6C406.1,333.1,406.6,332.5,407.3,332.3z" />
			</g>
			<g>
				<path fill="currentColor" d="M416.4,339.3c0.4-0.1,0.9-0.1,1.3,0.1c0.8,0.5,1.1,1.5,0.6,2.3c-0.2,0.3-0.2,0.9-0.2,1.3
				l-0.2,13.7c0,0.9-0.8,1.6-1.7,1.6c-0.9,0-1.6-0.8-1.6-1.7l0.2-13.7c0-0.8,0-1.9,0.6-3C415.6,339.7,416,339.4,416.4,339.3z" />
			</g>
		</g>
		<g>
			<g>
				<path fill="currentColor" d="M407.2,449.9c3.6-4.2,6.5-4.1,8.3-3.3c1.4,0.7,2.7,1.7,4.3,3c3.9,3.2,9.8,8,23.5,12
				c13.4,3.9,21.1,3.9,25.7,3.9c2.1,0,3.6,0,4.8,0.3c2.5,0.7,3.8,4.1,4.2,5.6c0.9,3.1,1.2,7.7-1.1,10.4c-0.6,0.7-1.3,1.2-2.1,1.6
				c-5.4,2.3-19.3,2.4-37.1-2.9c-31.2-9.2-35.4-20.8-34.4-24.2C403.7,455.1,405.2,452.2,407.2,449.9z M474.4,479.7
				c1.2-1.4,1.4-4.4,0.5-7.3c-0.7-2.3-1.6-3.2-2-3.3c-0.8-0.2-2.1-0.2-3.9-0.2c-4.8,0-12.8,0-26.7-4c-14.3-4.2-20.5-9.2-24.6-12.6
				c-1.4-1.2-2.6-2.1-3.6-2.6c-1.4-0.7-3.4,1.2-4.4,2.4c-1.8,2.1-3.1,4.7-3.2,5.2c0,0,0.7,10.9,32.2,20.1c18.2,5.3,30.8,4.7,34.8,3
				C473.9,480.2,474.2,480,474.4,479.7z" />
			</g>
			<g>
				<path fill="currentColor" d="M445,405.3c14.3-16.8,17.8-15.9,19.4-15.5c2,0.5,6.6,1.7,9.2,40.3c1.3,18.5,1.5,37,1.5,37.2
				c0,0.9-0.7,1.7-1.6,1.7c-0.9,0-1.7-0.7-1.7-1.6c0-0.2-0.2-18.6-1.5-37c-2.4-35.2-6.3-37.2-6.8-37.4c-0.5-0.1-5-0.4-26.1,26.9
				c-11,14.3-21.1,29-21.2,29.1c-0.5,0.8-1.5,0.9-2.3,0.4c-0.8-0.5-0.9-1.5-0.4-2.3c0.1-0.1,10.2-14.9,21.3-29.3
				C438.7,412.9,442,408.7,445,405.3z" />
			</g>
			<g>
				<path fill="currentColor" d="M435.3,448c-1.1,1-2.9,1.3-4.2,0.4c-0.4-0.3-0.7-0.6-0.9-1c-0.6-0.7-1-1.6-1-2.5
				c0-1.6,1.2-3.1,2.7-3.4c0.9-0.2,2-0.1,2.8,0.4c0.7,0.5,1.5,1.3,1.6,2.2c0,0.1,0,0.1,0,0.2C436.7,445.6,436.3,447.1,435.3,448z" />
			</g>
			<g>
				<path fill="currentColor" d="M444.3,457.2c-2.1-0.6-1.1-3.9,1-3.2C447.3,454.6,446.4,457.8,444.3,457.2z" />
			</g>
			<g>
				<path fill="currentColor" d="M461.2,450.7c-1.8-0.5-2.8-2.4-2.3-4.2c0.5-1.8,2.4-2.8,4.2-2.3c1.8,0.5,2.8,2.4,2.3,4.2
				C464.9,450.2,463,451.2,461.2,450.7z" />
			</g>
			<g>
				<path fill="currentColor" d="M446.1,441.5c-1.2-0.3-1.9-1.6-1.5-2.8c0.3-1.2,1.6-1.9,2.8-1.5c1.2,0.3,1.9,1.6,1.5,2.8
				C448.6,441.1,447.3,441.8,446.1,441.5z" />
			</g>
			<g>
				<path fill="currentColor" d="M443.7,426.8c-1.5-0.5-0.8-2.8,0.7-2.4C446,424.9,445.3,427.3,443.7,426.8z" />
			</g>
			<g>
				<path fill="currentColor" d="M463.1,434C463,434,463,434,463.1,434c-1.2,1.4-3.8,0.6-4.1-1.1c0,0,0-0.1,0-0.1
				c-0.1-0.9,0-1.7,0.7-2.4c0.6-0.6,1.6-0.8,2.4-0.6c0.8,0.2,1.5,0.9,1.7,1.8C464,432.5,463.7,433.3,463.1,434z" />
			</g>
			<g>
				<path fill="currentColor" d="M459.7,416.9C459.7,416.9,459.6,416.9,459.7,416.9c-0.5,0.7-1,1.1-1.7,1.3c-0.9,0.2-2-0.1-2.7-0.8
				c0,0,0-0.1-0.1-0.1c-1.4-1.6-0.7-4.2,1.4-4.7c1-0.2,2.1,0.1,2.7,0.8C460.1,414.3,460.4,415.9,459.7,416.9z" />
			</g>
			<g>
				<path fill="currentColor" d="M459.2,406.3c-1.1-0.3-1.8-1.5-1.5-2.7c0.3-1.1,1.5-1.8,2.7-1.5c1.1,0.3,1.8,1.5,1.5,2.7
				C461.6,405.9,460.4,406.6,459.2,406.3z" />
			</g>
			<g>
				<path fill="currentColor" d="M460.6,458.5c-0.6,0.6-1.7,0.7-2.4,0.2c-0.4-0.3-0.7-0.7-0.8-1.2c-0.2-0.5,0-1,0.2-1.5
				c0.3-0.6,1-0.9,1.6-0.9c0.7,0,1.3,0.4,1.6,1c0.1,0.2,0.1,0.3,0.2,0.5C461.3,457.2,461.1,458,460.6,458.5z" />
			</g>
			<g>
				<path fill="currentColor" d="M408.2,449.5c0.2-0.2,0.5-0.4,0.8-0.5c0.9-0.3,1.8,0.2,2.1,1.1c2,6.8,4.7,13.5,7.9,19.9
				c0.4,0.8,0.1,1.8-0.7,2.2c-0.8,0.4-1.8,0.1-2.2-0.7c-3.3-6.5-6-13.4-8.1-20.4C407.7,450.5,407.8,449.9,408.2,449.5z" />
			</g>
			<g>
				<path fill="currentColor" d="M423.9,454.8c0.2-0.2,0.5-0.4,0.8-0.5c0.9-0.3,1.8,0.2,2.1,1.1c2.1,6.9,4.4,13.8,7,20.5
				c0.3,0.9-0.1,1.8-1,2.1c-0.9,0.3-1.8-0.1-2.1-1c-2.6-6.8-5-13.7-7.1-20.7C423.4,455.8,423.5,455.2,423.9,454.8z" />
			</g>
			<g>
				<path fill="currentColor" d="M439.5,462.5c0.1-0.1,0.3-0.3,0.4-0.4c0.8-0.5,1.8-0.2,2.3,0.6c3.4,5.8,6.3,11.8,8.7,18.1
				c0.3,0.9-0.1,1.8-1,2.1c-0.9,0.3-1.8-0.1-2.1-1c-2.3-6.1-5.2-12-8.5-17.6C439,463.7,439.1,463,439.5,462.5z" />
			</g>
			<g>
				<path fill="currentColor" d="M453.5,465.6c0.1-0.1,0.2-0.2,0.3-0.3c0.8-0.5,1.8-0.3,2.3,0.5c3,4.5,5.6,9.3,7.7,14.3
				c0.2,0.5,0.5,1.1,0.7,1.2c0.8,0.5,1,1.5,0.5,2.3c-0.5,0.8-1.5,1-2.3,0.5c-1.2-0.7-1.7-1.9-2-2.8c-2-4.8-4.5-9.4-7.4-13.7
				C452.9,466.9,453,466.1,453.5,465.6z" />
			</g>
			<g>
				<path fill="currentColor" d="M464.9,466.6c0.3-0.3,0.7-0.6,1.2-0.6c0.9,0,1.7,0.7,1.7,1.6c0,0.3,0.3,0.8,0.6,1.2l7.2,11.7
				c0.5,0.8,0.2,1.8-0.5,2.3c-0.8,0.5-1.8,0.2-2.3-0.5l-7.2-11.7c-0.4-0.7-1-1.6-1.1-2.8C464.5,467.3,464.7,466.9,464.9,466.6z" />
			</g>
		</g>
		<g>
			<g>
				<path fill="currentColor" d="M367.8,106.8c0.2-5.6,2.6-7.3,4.5-7.7c1.5-0.3,3.2-0.3,5.2-0.3c5,0.1,12.7,0.2,25.9-5
				c13-5.2,19-9.9,22.7-12.8c1.6-1.3,2.8-2.2,4-2.7c2.5-1,5.5,0.9,6.8,1.8c2.6,1.9,5.7,5.3,5.5,8.9c0,0.9-0.3,1.7-0.7,2.5
				c-2.8,5.1-13.7,13.7-31,20.6c-30.2,12-40.7,5.4-42,2.1C368.3,113.1,367.7,109.8,367.8,106.8z M439.1,88.9
				c0.1-1.8-1.6-4.3-4.1-6.1c-1.9-1.4-3.3-1.5-3.6-1.4c-0.7,0.3-1.8,1.1-3.2,2.2c-3.8,3-10.1,7.9-23.5,13.3
				c-13.8,5.5-21.8,5.4-27.2,5.3c-1.9,0-3.3-0.1-4.5,0.2c-1.6,0.3-1.9,3-2,4.6c-0.1,2.8,0.5,5.6,0.7,6.1c0,0,7.3,8.1,37.7-4
				c17.6-7,27.2-15.3,29.3-19.1C439,89.6,439.1,89.3,439.1,88.9z" />
			</g>
			<g>
				<path fill="currentColor" d="M370.1,48.4c0.9-22.1,4.2-23.5,5.7-24.1c1.9-0.8,6.3-2.7,32.1,26.1c12.4,13.8,24,28.3,24.1,28.4
				c0.6,0.7,0.5,1.8-0.3,2.3c-0.7,0.6-1.8,0.5-2.3-0.3c-0.1-0.1-11.6-14.5-24-28.3c-23.6-26.2-27.9-25.4-28.4-25.2
				c-0.4,0.2-4.2,2.8-4,37.2c0.1,18,1.2,35.8,1.2,36c0.1,0.9-0.6,1.7-1.5,1.8c-0.9,0.1-1.7-0.6-1.8-1.5c0-0.2-1.1-18.1-1.2-36.2
				C369.8,58.3,369.9,52.9,370.1,48.4z" />
			</g>
			<g>
				<path fill="currentColor" d="M388.8,88.1c-0.2,1.5-1.5,2.9-3,2.9c-0.5,0-0.9-0.1-1.3-0.2c-0.9-0.1-1.8-0.6-2.3-1.4
				c-1-1.3-1-3.1,0-4.4c0.6-0.8,1.5-1.3,2.5-1.4c0.9-0.1,2,0.1,2.6,0.7c0,0,0.1,0.1,0.1,0.1C388.4,85.3,389,86.7,388.8,88.1z" />
			</g>
			<g>
				<path fill="currentColor" d="M401.5,89.7c-2,0.8-3.3-2.3-1.2-3.1C402.3,85.8,403.6,88.9,401.5,89.7z" />
			</g>
			<g>
				<path fill="currentColor" d="M410.9,74.1c-1.7,0.7-3.7-0.2-4.4-1.9c-0.7-1.7,0.2-3.7,1.9-4.4c1.7-0.7,3.7,0.2,4.4,1.9
				C413.5,71.5,412.6,73.5,410.9,74.1z" />
			</g>
			<g>
				<path fill="currentColor" d="M393.3,76.2c-1.1,0.5-2.5-0.1-2.9-1.3c-0.5-1.1,0.1-2.5,1.3-2.9s2.5,0.1,2.9,1.3
				C395,74.4,394.5,75.8,393.3,76.2z" />
			</g>
			<g>
				<path fill="currentColor" d="M382.4,66.1c-1.5,0.6-2.4-1.7-0.9-2.3C383,63.2,383.9,65.6,382.4,66.1z" />
			</g>
			<g>
				<path fill="currentColor" d="M402,59.8c0,0,0,0.1,0,0.1c-0.1,1.7-2.6,2.7-3.9,1.5c0,0-0.1-0.1-0.1-0.1
				c-0.7-0.6-1.1-1.4-0.9-2.3c0.1-0.9,0.7-1.6,1.5-1.9c0.8-0.3,1.7-0.2,2.4,0.3C401.8,58.1,402.1,58.9,402,59.8z" />
			</g>
			<g>
				<path fill="currentColor" d="M388.8,48.5c0,0,0,0.1,0,0.1c0,0.7-0.1,1.4-0.6,2c-0.6,0.8-1.6,1.2-2.6,1c0,0-0.1,0-0.1,0
				c-2.1-0.4-3.1-2.8-1.8-4.6c0.6-0.8,1.7-1.2,2.7-1.1C387.6,46.2,388.8,47.2,388.8,48.5z" />
			</g>
			<g>
				<path fill="currentColor" d="M381.9,40.4c-1.1,0.4-2.4-0.1-2.8-1.2c-0.4-1.1,0.1-2.4,1.2-2.8c1.1-0.4,2.4,0.1,2.8,1.2
				C383.6,38.7,383,40,381.9,40.4z" />
			</g>
			<g>
				<path fill="currentColor" d="M415.2,80.7c-0.1,0.9-0.9,1.6-1.8,1.7c-0.5,0-1-0.1-1.4-0.4c-0.5-0.3-0.6-0.8-0.7-1.3
				c-0.1-0.6,0.3-1.3,0.7-1.7c0.5-0.4,1.2-0.5,1.9-0.2c0.2,0.1,0.3,0.2,0.5,0.3C414.9,79.3,415.3,79.9,415.2,80.7z" />
			</g>
			<g>
				<path fill="currentColor" d="M368.4,105.9c0-0.3,0.1-0.6,0.3-0.9c0.5-0.7,1.6-0.9,2.3-0.4c5.8,4.1,12,7.7,18.4,10.8
				c0.8,0.4,1.2,1.4,0.8,2.2c-0.4,0.8-1.4,1.2-2.2,0.8c-6.6-3.1-13-6.9-18.9-11.1C368.6,107,368.4,106.4,368.4,105.9z" />
			</g>
			<g>
				<path fill="currentColor" d="M384,100.4c0-0.3,0.1-0.6,0.3-0.9c0.5-0.7,1.6-0.9,2.3-0.4c5.9,4.1,11.9,8.1,18.1,11.8
				c0.8,0.5,1,1.5,0.6,2.3c-0.5,0.8-1.5,1-2.3,0.6c-6.2-3.7-12.4-7.8-18.3-12C384.2,101.5,384,101,384,100.4z" />
			</g>
			<g>
				<path fill="currentColor" d="M401,96.8c0-0.2,0-0.4,0.1-0.5c0.3-0.9,1.3-1.3,2.1-0.9c6.2,2.4,12.3,5.4,18,8.9
				c0.8,0.5,1,1.5,0.6,2.3c-0.5,0.8-1.5,1-2.3,0.6c-5.6-3.3-11.5-6.2-17.5-8.6C401.4,98.1,401,97.5,401,96.8z" />
			</g>
			<g>
				<path fill="currentColor" d="M413.9,90.6c0-0.2,0-0.3,0.1-0.5c0.3-0.9,1.2-1.3,2.1-1c5.1,1.7,10.1,3.9,14.8,6.5
				c0.4,0.2,1,0.6,1.3,0.5c0.9-0.1,1.7,0.6,1.8,1.5c0.1,0.9-0.6,1.7-1.5,1.8c-1.4,0.2-2.5-0.5-3.3-0.9c-4.5-2.5-9.4-4.6-14.3-6.3
				C414.4,92,413.9,91.4,413.9,90.6z" />
			</g>
			<g>
				<path fill="currentColor" d="M423.6,84.4c0-0.4,0.2-0.9,0.6-1.2c0.7-0.6,1.7-0.5,2.3,0.2c0.2,0.2,0.8,0.5,1.2,0.6l12.9,4.8
				c0.9,0.3,1.3,1.3,1,2.1c-0.3,0.9-1.3,1.3-2.1,1l-12.9-4.8c-0.8-0.3-1.8-0.7-2.6-1.6C423.7,85.2,423.6,84.8,423.6,84.4z" />
			</g>
		</g>
		<g>
			<g>
				<path fill="currentColor" d="M403.7,181.9c5-2.5,7.6-1.2,8.9,0.3c1,1.2,1.8,2.6,2.8,4.5c2.4,4.5,5.9,11.2,16.9,20.2
				c10.8,8.9,17.9,11.9,22.1,13.7c1.9,0.8,3.3,1.4,4.3,2.2c2,1.7,1.9,5.3,1.7,6.8c-0.4,3.2-1.9,7.6-5.1,9.2
				c-0.8,0.4-1.7,0.6-2.6,0.6c-5.9,0-18.7-5.4-33-17.2c-25.1-20.7-24.4-33.1-22.2-35.8C398.4,185.4,401,183.3,403.7,181.9z
				 M453.9,235.7c1.6-0.8,3-3.5,3.3-6.6c0.3-2.4-0.2-3.6-0.5-3.8c-0.6-0.5-1.8-1-3.5-1.7c-4.4-1.9-11.8-5-23-14.2
				c-11.5-9.5-15.2-16.5-17.7-21.2c-0.9-1.6-1.6-2.9-2.3-3.8c-1.1-1.2-3.6-0.2-5,0.5c-2.5,1.2-4.7,3.1-5,3.5c0,0-3.6,10.3,21.7,31.1
				c14.6,12,26.5,16.4,30.9,16.4C453.2,236,453.5,235.9,453.9,235.7z" />
			</g>
			<g>
				<path fill="currentColor" d="M455.9,155.7c19.8-9.8,22.6-7.7,23.9-6.6c1.6,1.3,5.4,4.2-7.3,40.7c-6.1,17.6-13.2,34.6-13.2,34.8
				c-0.3,0.8-1.3,1.2-2.2,0.9c-0.8-0.4-1.2-1.3-0.9-2.2c0.1-0.2,7.1-17.2,13.2-34.6c11.6-33.3,8.8-36.7,8.4-37
				c-0.4-0.3-4.5-2.3-34.5,14.5c-15.7,8.8-30.8,18.4-30.9,18.5c-0.8,0.5-1.8,0.3-2.3-0.5c-0.5-0.8-0.3-1.8,0.5-2.3
				c0.2-0.1,15.3-9.7,31.1-18.6C447.2,160.2,451.9,157.7,455.9,155.7z" />
			</g>
			<g>
				<path fill="currentColor" d="M430.3,191.3c-1.4,0.5-3.2,0.1-4-1.2c-0.2-0.4-0.4-0.8-0.5-1.3c-0.3-0.9-0.3-1.8,0.1-2.7
				c0.7-1.5,2.3-2.4,3.9-2.1c1,0.2,1.8,0.7,2.4,1.5c0.5,0.7,0.8,1.8,0.6,2.7c0,0.1,0,0.1-0.1,0.2
				C432.5,189.6,431.5,190.8,430.3,191.3z" />
			</g>
			<g>
				<path fill="currentColor" d="M435,203.2c-1.7-1.4,0.5-4,2.1-2.6C438.8,202,436.6,204.6,435,203.2z" />
			</g>
			<g>
				<path fill="currentColor" d="M453.1,203.9c-1.4-1.2-1.6-3.3-0.5-4.8c1.2-1.4,3.3-1.6,4.8-0.5c1.4,1.2,1.6,3.3,0.5,4.8
				C456.7,204.8,454.6,205.1,453.1,203.9z" />
			</g>
			<g>
				<path fill="currentColor" d="M442.8,189.5c-1-0.8-1.1-2.2-0.3-3.2c0.8-1,2.2-1.1,3.2-0.3c1,0.8,1.1,2.2,0.3,3.2
				C445.2,190.1,443.8,190.3,442.8,189.5z" />
			</g>
			<g>
				<path fill="currentColor" d="M446.4,175.1c-1.2-1,0.3-2.9,1.6-1.9C449.2,174.2,447.6,176.1,446.4,175.1z" />
			</g>
			<g>
				<path fill="currentColor" d="M461.4,189.2C461.3,189.2,461.3,189.2,461.4,189.2c-1.7,0.8-3.8-0.9-3.3-2.6c0,0,0-0.1,0-0.1
				c0.2-0.9,0.7-1.6,1.6-1.9c0.8-0.3,1.8-0.1,2.4,0.4c0.7,0.6,1,1.4,0.9,2.3C462.8,188.2,462.2,188.8,461.4,189.2z" />
			</g>
			<g>
				<path fill="currentColor" d="M464.9,172.2C464.9,172.2,464.9,172.2,464.9,172.2c-0.7,0.4-1.4,0.6-2.1,0.5
				c-1-0.2-1.8-0.8-2.1-1.8c0,0,0-0.1,0-0.1c-0.7-2,1-4.1,3.1-3.8c1,0.2,1.9,0.9,2.2,1.8C466.4,170,466,171.5,464.9,172.2z" />
			</g>
			<g>
				<path fill="currentColor" d="M468.7,162.2c-0.9-0.7-1-2.1-0.3-3c0.7-0.9,2.1-1,3-0.3c0.9,0.7,1,2.1,0.3,3
				C471,162.8,469.6,163,468.7,162.2z" />
			</g>
			<g>
				<path fill="currentColor" d="M449.5,210.8c-0.8,0.3-1.8,0-2.3-0.8c-0.3-0.5-0.4-0.9-0.3-1.4c0.1-0.6,0.4-0.9,0.8-1.3
				c0.5-0.4,1.3-0.4,1.8-0.2c0.6,0.3,1,0.9,1.1,1.5c0,0.2,0,0.4,0,0.5C450.6,209.9,450.2,210.5,449.5,210.8z" />
			</g>
			<g>
				<path fill="currentColor" d="M404.8,182c0.3-0.1,0.6-0.2,0.9-0.2c0.9,0.1,1.6,0.9,1.5,1.8c-0.8,7.1-1,14.2-0.5,21.3
				c0.1,0.9-0.6,1.7-1.6,1.8c-0.9,0.1-1.7-0.6-1.8-1.6c-0.4-7.3-0.3-14.7,0.6-21.9C403.9,182.7,404.3,182.2,404.8,182z" />
			</g>
			<g>
				<path fill="currentColor" d="M417.1,193c0.3-0.1,0.6-0.2,0.9-0.2c0.9,0.1,1.6,0.9,1.5,1.8c-0.8,7.1-1.3,14.4-1.6,21.6
				c0,0.9-0.8,1.6-1.7,1.6c-0.9,0-1.6-0.8-1.6-1.7c0.3-7.3,0.8-14.6,1.6-21.8C416.3,193.8,416.6,193.3,417.1,193z" />
			</g>
			<g>
				<path fill="currentColor" d="M428.5,206.2c0.2-0.1,0.3-0.1,0.5-0.2c0.9-0.1,1.7,0.5,1.9,1.4c0.9,6.6,1.2,13.4,0.9,20
				c0,0.9-0.8,1.6-1.7,1.6c-0.9,0-1.6-0.8-1.6-1.7c0.2-6.5-0.1-13-0.9-19.5C427.5,207.2,427.9,206.5,428.5,206.2z" />
			</g>
			<g>
				<path fill="currentColor" d="M440.2,214.5c0.1-0.1,0.3-0.1,0.4-0.1c0.9-0.2,1.8,0.4,1.9,1.3c1,5.3,1.5,10.7,1.5,16.1
				c0,0.5,0,1.2,0.2,1.4c0.5,0.7,0.4,1.8-0.4,2.3c-0.7,0.5-1.8,0.3-2.3-0.4c-0.8-1.1-0.8-2.4-0.8-3.3c0-5.2-0.5-10.4-1.4-15.5
				C439.1,215.6,439.5,214.8,440.2,214.5z" />
			</g>
			<g>
				<path fill="currentColor" d="M450.3,220c0.4-0.2,0.9-0.2,1.3-0.1c0.9,0.3,1.3,1.3,1,2.1c-0.1,0.3,0,0.9,0,1.4l2,13.6
				c0.1,0.9-0.5,1.7-1.4,1.9c-0.9,0.1-1.7-0.5-1.9-1.4l-2-13.6c-0.1-0.8-0.3-1.9,0.1-3C449.6,220.5,449.9,220.2,450.3,220z" />
			</g>
		</g>
		<g>
			<g>
				<path fill="currentColor" d="M101.3,215.8c-2.9-4.7-1.9-7.5-0.5-8.9c1.1-1.1,2.4-2,4.2-3.2c4.2-2.7,10.6-6.9,18.7-18.6
				c7.9-11.5,10.2-18.9,11.7-23.3c0.6-2,1.1-3.4,1.8-4.5c1.5-2.2,5.1-2.3,6.6-2.3c3.2,0.1,7.7,1.3,9.6,4.3c0.5,0.8,0.7,1.6,0.8,2.5
				c0.5,5.8-3.7,19.1-14.2,34.4c-18.4,26.9-30.8,27.2-33.7,25.3C105.2,220.8,102.8,218.3,101.3,215.8z M150.4,161.1
				c-0.9-1.5-3.7-2.7-6.8-2.7c-2.4-0.1-3.6,0.5-3.8,0.9c-0.5,0.7-0.9,1.9-1.4,3.6c-1.5,4.6-3.9,12.2-12.1,24.1
				c-8.4,12.3-15.1,16.6-19.6,19.5c-1.6,1-2.8,1.8-3.6,2.7c-1.1,1.2,0.1,3.6,0.9,4.9c1.5,2.4,3.5,4.4,4,4.7c0,0,10.6,2.7,29.1-24.4
				c10.7-15.6,14-27.8,13.6-32.2C150.7,161.7,150.6,161.4,150.4,161.1z" />
			</g>
			<g>
				<path fill="currentColor" d="M70.6,166.1c-11.5-18.8-9.6-21.8-8.7-23.2c1.1-1.7,3.7-5.7,41.2,3.7c18,4.5,35.7,10.1,35.8,10.1
				c0.9,0.3,1.4,1.2,1.1,2.1c-0.3,0.9-1.2,1.4-2.1,1.1c-0.2-0.1-17.7-5.6-35.7-10.1c-34.2-8.6-37.4-5.5-37.6-5.1
				c-0.3,0.4-1.9,4.7,17.5,33.1c10.1,14.9,21,29.1,21.1,29.2c0.6,0.7,0.4,1.8-0.3,2.3c-0.7,0.6-1.8,0.4-2.3-0.3
				c-0.1-0.1-11-14.4-21.2-29.3C75.8,174.4,72.9,169.9,70.6,166.1z" />
			</g>
			<g>
				<path fill="currentColor" d="M108.2,188.5c0.6,1.3,0.4,3.2-0.9,4.1c-0.4,0.3-0.8,0.5-1.2,0.6c-0.8,0.4-1.8,0.5-2.7,0.2
				c-1.5-0.5-2.5-2.1-2.4-3.7c0.1-1,0.5-1.9,1.3-2.5c0.7-0.6,1.7-1,2.6-0.8c0.1,0,0.1,0,0.2,0C106.4,186.4,107.6,187.3,108.2,188.5z
				" />
			</g>
			<g>
				<path fill="currentColor" d="M119.7,182.8c-1.2,1.8-4-0.1-2.8-1.9C118.1,179.1,120.9,181,119.7,182.8z" />
			</g>
			<g>
				<path fill="currentColor" d="M118.8,164.6c-1,1.5-3.2,1.9-4.7,0.9c-1.5-1-1.9-3.2-0.9-4.7c1-1.5,3.2-1.9,4.7-0.9
				C119.4,161,119.8,163.1,118.8,164.6z" />
			</g>
			<g>
				<path fill="currentColor" d="M105.3,176.2c-0.7,1-2.1,1.3-3.2,0.6c-1-0.7-1.3-2.1-0.6-3.2c0.7-1,2.1-1.3,3.2-0.6
				C105.8,173.7,106,175.1,105.3,176.2z" />
			</g>
			<g>
				<path fill="currentColor" d="M90.6,173.9c-0.9,1.3-3-0.1-2.1-1.4C89.5,171.2,91.5,172.6,90.6,173.9z" />
			</g>
			<g>
				<path fill="currentColor" d="M103.4,157.7C103.4,157.7,103.4,157.8,103.4,157.7c0.9,1.6-0.6,3.8-2.3,3.5c0,0-0.1,0-0.1,0
				c-0.9-0.2-1.7-0.6-2.1-1.4c-0.4-0.8-0.3-1.7,0.2-2.5c0.5-0.7,1.3-1.1,2.2-1.1C102.3,156.4,102.9,156.9,103.4,157.7z" />
			</g>
			<g>
				<path fill="currentColor" d="M86.1,155.6C86.1,155.7,86.2,155.7,86.1,155.6c0.5,0.7,0.8,1.3,0.7,2.1c-0.1,1-0.7,1.9-1.6,2.3
				c0,0-0.1,0-0.1,0c-1.9,0.9-4.2-0.6-4-2.8c0.1-1,0.7-1.9,1.6-2.4C83.8,154.4,85.4,154.6,86.1,155.6z" />
			</g>
			<g>
				<path fill="currentColor" d="M75.9,152.8c-0.7,1-2,1.2-3,0.6c-1-0.7-1.2-2-0.6-3c0.7-1,2-1.2,3-0.6
				C76.3,150.5,76.5,151.8,75.9,152.8z" />
			</g>
			<g>
				<path fill="currentColor" d="M126,167.6c0.4,0.8,0.2,1.8-0.5,2.4c-0.4,0.3-0.9,0.4-1.4,0.4c-0.6,0-1-0.3-1.4-0.7
				c-0.5-0.4-0.5-1.2-0.3-1.8c0.2-0.6,0.8-1.1,1.4-1.2c0.2,0,0.4,0,0.5,0C125,166.6,125.6,167,126,167.6z" />
			</g>
			<g>
				<path fill="currentColor" d="M101.2,214.7c-0.2-0.3-0.3-0.6-0.2-0.9c0-0.9,0.8-1.6,1.7-1.6c7.1,0.2,14.3-0.3,21.3-1.3
				c0.9-0.1,1.7,0.5,1.9,1.4c0.1,0.9-0.5,1.7-1.4,1.9c-7.2,1.1-14.6,1.5-21.9,1.4C102,215.5,101.5,215.2,101.2,214.7z" />
			</g>
			<g>
				<path fill="currentColor" d="M111.1,201.4c-0.2-0.3-0.3-0.6-0.2-0.9c0-0.9,0.8-1.6,1.7-1.6c7.2,0.2,14.4,0.1,21.6-0.3
				c0.9,0,1.7,0.7,1.7,1.6c0,0.9-0.7,1.7-1.6,1.7c-7.3,0.4-14.6,0.5-21.9,0.3C111.9,202.2,111.4,201.9,111.1,201.4z" />
			</g>
			<g>
				<path fill="currentColor" d="M123.2,188.9c-0.1-0.2-0.2-0.3-0.2-0.5c-0.2-0.9,0.4-1.8,1.3-2c6.5-1.4,13.2-2.4,19.9-2.7
				c0.9,0,1.7,0.7,1.7,1.6c0,0.9-0.7,1.7-1.6,1.7c-6.5,0.3-13,1.2-19.3,2.6C124.3,189.8,123.6,189.5,123.2,188.9z" />
			</g>
			<g>
				<path fill="currentColor" d="M130.5,176.6c-0.1-0.1-0.1-0.3-0.2-0.4c-0.2-0.9,0.3-1.8,1.2-2c5.2-1.4,10.6-2.4,16-2.9
				c0.5,0,1.2-0.1,1.4-0.3c0.7-0.6,1.7-0.5,2.3,0.2c0.6,0.7,0.5,1.7-0.2,2.3c-1,0.9-2.3,1-3.3,1.1c-5.2,0.5-10.3,1.4-15.4,2.8
				C131.6,177.5,130.9,177.2,130.5,176.6z" />
			</g>
			<g>
				<path fill="currentColor" d="M135,166c-0.2-0.4-0.3-0.9-0.2-1.3c0.2-0.9,1.2-1.4,2-1.1c0.3,0.1,0.9,0,1.3-0.2l13.4-3.2
				c0.9-0.2,1.8,0.3,2,1.2c0.2,0.9-0.3,1.8-1.2,2l-13.4,3.2c-0.8,0.2-1.9,0.5-3,0.1C135.6,166.6,135.3,166.4,135,166z" />
			</g>
		</g>
		<g>
			<g>
				<path fill="currentColor" d="M307.4,236.7c-5.6-0.2-7.3-2.5-7.8-4.4c-0.4-1.5-0.4-3.2-0.4-5.2c0-5,0-12.7-5.4-25.8
				c-5.3-12.9-10.2-18.9-13.1-22.5c-1.3-1.6-2.3-2.8-2.8-4c-1-2.4,0.8-5.6,1.7-6.8c1.8-2.7,5.3-5.8,8.8-5.7c0.9,0,1.8,0.3,2.5,0.7
				c5.2,2.8,13.9,13.5,21,30.7c12.4,30.1,6,40.7,2.7,42C313.7,236.2,310.4,236.8,307.4,236.7z M288.5,165.6c-1.8-0.1-4.3,1.7-6,4.2
				c-1.4,2-1.5,3.3-1.4,3.6c0.3,0.7,1.1,1.8,2.3,3.2c3,3.7,8.1,10,13.6,23.3c5.7,13.8,5.7,21.8,5.7,27.1c0,1.9,0,3.3,0.3,4.5
				c0.4,1.5,3.1,1.9,4.6,1.9c2.8,0.1,5.6-0.5,6.1-0.8c0,0,8-7.4-4.5-37.7c-7.2-17.5-15.6-26.9-19.5-29
				C289.2,165.7,288.9,165.7,288.5,165.6z" />
			</g>
			<g>
				<path fill="currentColor" d="M249,235.2c-22.1-0.6-23.5-3.9-24.2-5.4c-0.8-1.9-2.8-6.2,25.6-32.5
				c13.6-12.6,27.9-24.4,28.1-24.5c0.7-0.6,1.8-0.5,2.3,0.2c0.6,0.7,0.5,1.8-0.2,2.3c-0.1,0.1-14.4,11.8-27.9,24.4
				c-25.9,23.9-25,28.3-24.8,28.7c0.2,0.4,2.9,4.1,37.3,3.5c18-0.4,35.8-1.7,36-1.7c0.9-0.1,1.7,0.6,1.8,1.5
				c0.1,0.9-0.6,1.7-1.5,1.8c-0.2,0-18.1,1.4-36.2,1.8C258.8,235.4,253.5,235.4,249,235.2z" />
			</g>
			<g>
				<path fill="currentColor" d="M288.4,216c1.5,0.2,2.9,1.4,3,3c0,0.5,0,0.9-0.2,1.3c-0.1,0.9-0.6,1.8-1.3,2.3c-1.3,1-3.1,1-4.4,0
				c-0.8-0.6-1.3-1.5-1.4-2.4c-0.1-0.9,0.1-2,0.7-2.6c0,0,0.1-0.1,0.1-0.1C285.6,216.4,287,215.8,288.4,216z" />
			</g>
			<g>
				<path fill="currentColor" d="M289.9,203.2c0.8,2-2.3,3.3-3.1,1.3C285.9,202.5,289,201.2,289.9,203.2z" />
			</g>
			<g>
				<path fill="currentColor" d="M274.1,194.1c0.7,1.7-0.1,3.7-1.8,4.4c-1.7,0.7-3.7-0.1-4.4-1.8c-0.7-1.7,0.1-3.7,1.8-4.4
				C271.4,191.6,273.4,192.4,274.1,194.1z" />
			</g>
			<g>
				<path fill="currentColor" d="M276.5,211.6c0.5,1.1-0.1,2.5-1.2,3c-1.1,0.5-2.5-0.1-3-1.2s0.1-2.5,1.2-3
				C274.7,209.9,276,210.5,276.5,211.6z" />
			</g>
			<g>
				<path fill="currentColor" d="M266.6,222.7c0.6,1.5-1.7,2.4-2.3,1C263.6,222.2,265.9,221.2,266.6,222.7z" />
			</g>
			<g>
				<path fill="currentColor" d="M260,203.2c0,0,0.1,0,0.1,0c1.7,0.1,2.8,2.6,1.6,3.9c0,0,0,0.1-0.1,0.1c-0.6,0.7-1.4,1.1-2.3,1
				c-0.9-0.1-1.6-0.7-1.9-1.5c-0.3-0.8-0.2-1.7,0.3-2.4C258.2,203.4,259.1,203.1,260,203.2z" />
			</g>
			<g>
				<path fill="currentColor" d="M248.8,216.5c0,0,0.1,0,0.1,0c0.7,0,1.4,0.1,2,0.5c0.8,0.6,1.2,1.6,1.1,2.6c0,0,0,0.1,0,0.1
				c-0.3,2.1-2.8,3.2-4.5,1.9c-0.8-0.6-1.2-1.6-1.1-2.6C246.5,217.8,247.5,216.6,248.8,216.5z" />
			</g>
			<g>
				<path fill="currentColor" d="M240.8,223.5c0.4,1.1-0.1,2.4-1.2,2.8c-1.1,0.4-2.4-0.1-2.8-1.2c-0.4-1.1,0.1-2.4,1.2-2.8
				C239.1,221.9,240.4,222.4,240.8,223.5z" />
			</g>
			<g>
				<path fill="currentColor" d="M280.6,189.7c0.9,0.1,1.6,0.9,1.7,1.7c0,0.5-0.1,1-0.4,1.4c-0.3,0.5-0.8,0.6-1.3,0.8
				c-0.6,0.1-1.3-0.2-1.7-0.7c-0.4-0.5-0.5-1.2-0.2-1.9c0.1-0.2,0.2-0.3,0.3-0.5C279.2,190,279.9,189.6,280.6,189.7z" />
			</g>
			<g>
				<path fill="currentColor" d="M306.5,236.1c-0.3,0-0.6-0.1-0.9-0.3c-0.8-0.5-0.9-1.5-0.4-2.3c4-5.9,7.6-12.1,10.5-18.6
				c0.4-0.8,1.4-1.2,2.2-0.8c0.8,0.4,1.2,1.4,0.8,2.2c-3,6.6-6.7,13.1-10.8,19.1C307.6,235.9,307,236.2,306.5,236.1z" />
			</g>
			<g>
				<path fill="currentColor" d="M300.8,220.6c-0.3,0-0.6-0.1-0.9-0.3c-0.8-0.5-0.9-1.5-0.4-2.3c4.1-5.9,7.9-12.1,11.6-18.3
				c0.5-0.8,1.5-1.1,2.3-0.6c0.8,0.5,1.1,1.5,0.6,2.3c-3.6,6.3-7.6,12.5-11.7,18.5C301.9,220.4,301.3,220.6,300.8,220.6z" />
			</g>
			<g>
				<path fill="currentColor" d="M296.9,203.6c-0.2,0-0.4,0-0.5-0.1c-0.9-0.3-1.3-1.3-1-2.1c2.4-6.2,5.3-12.3,8.6-18.1
				c0.5-0.8,1.5-1.1,2.3-0.6c0.8,0.5,1.1,1.5,0.6,2.3c-3.3,5.6-6.1,11.5-8.4,17.6C298.3,203.2,297.6,203.7,296.9,203.6z" />
			</g>
			<g>
				<path fill="currentColor" d="M290.6,190.8c-0.2,0-0.3,0-0.5-0.1c-0.9-0.3-1.4-1.2-1.1-2.1c1.6-5.1,3.8-10.2,6.3-14.9
				c0.2-0.4,0.6-1,0.5-1.3c-0.1-0.9,0.5-1.7,1.4-1.9c0.9-0.1,1.7,0.5,1.9,1.4c0.2,1.4-0.4,2.5-0.9,3.3c-2.5,4.6-4.5,9.4-6.1,14.4
				C292,190.4,291.3,190.8,290.6,190.8z" />
			</g>
			<g>
				<path fill="currentColor" d="M284.2,181.2c-0.4,0-0.9-0.2-1.2-0.6c-0.6-0.7-0.5-1.7,0.2-2.3c0.2-0.2,0.4-0.8,0.6-1.2l4.6-12.9
				c0.3-0.9,1.3-1.3,2.1-1c0.9,0.3,1.3,1.3,1,2.1l-4.6,12.9c-0.3,0.8-0.6,1.8-1.5,2.6C285,181.1,284.6,181.2,284.2,181.2z" />
			</g>
		</g>
		<g>
			<g>
				<path fill="currentColor" d="M234.7,298.4c-1.8-2.5-0.6-7.5,1.5-10.8c2-3.1,4.6-4.7,7.3-4.2c5.8,0.9,17.6,8.3,29.8,22.2
				c3.3,3.7,6.2,7.3,8.6,10.7c12.4,17.6,9.6,26.4,7.7,28.1c-1.3,1.1-7.3,4.5-11.6,4c-1.6-0.2-2.9-0.9-3.8-2.1l-0.1-0.2
				c-0.8-1.3-1.4-2.9-2-4.8c-1.2-3.6-2.9-8.6-7.7-15.3c-1.7-2.4-3.6-4.8-5.8-7.3c-9.2-10.5-15.8-14.6-19.7-17
				c-1.8-1.1-3-1.9-3.9-2.9C234.8,298.6,234.8,298.5,234.7,298.4z M279.2,318.1c-2.3-3.3-5.1-6.8-8.3-10.5
				c-12.5-14.2-23.5-20.4-27.9-21.1c-1.9-0.3-3.4,1.8-4,2.7c-1.8,2.8-2.2,6.3-1.6,7.2l0,0c0.5,0.6,1.6,1.3,3.2,2.2
				c4.1,2.5,10.9,6.8,20.4,17.6c2.3,2.6,4.3,5.1,6,7.6c5,7.2,6.8,12.4,8.1,16.2c0.6,1.8,1.1,3.2,1.7,4.1c0.3,0.3,0.6,0.7,1.5,0.8
				c3,0.4,8.1-2.4,9-3.2C288.3,340.7,289.7,333.2,279.2,318.1z" />
			</g>
			<g>
				<path fill="currentColor" d="M202.1,367.5c-1.4-2-2.4-7.9,14.1-38.5c8.8-16.4,18.5-32.1,18.6-32.3c0.5-0.8,1.5-1,2.3-0.5
				c0.8,0.5,1,1.5,0.5,2.3c-0.1,0.2-9.7,15.8-18.5,32.1c-16.7,31.1-14.5,34.9-14.2,35.2c0.3,0.3,4,3,36.4-8.8
				c16.9-6.2,33.3-13.3,33.5-13.3c0.8-0.4,1.8,0,2.2,0.9c0.4,0.8,0,1.8-0.9,2.2c-0.2,0.1-16.6,7.2-33.6,13.4
				c-35.4,12.9-38.6,9.5-40,8C202.4,367.9,202.2,367.8,202.1,367.5z" />
			</g>
			<g>
				<path fill="currentColor" d="M258.1,334.3c1.5-0.3,3.2,0.4,3.8,1.9c0.2,0.4,0.3,0.9,0.3,1.3c0.2,0.9,0,1.9-0.5,2.7
				c-0.9,1.4-2.6,2-4.2,1.5c-0.9-0.3-1.7-1-2.1-1.8c-0.4-0.8-0.5-1.9-0.2-2.7c0-0.1,0.1-0.1,0.1-0.2
				C255.7,335.6,256.8,334.6,258.1,334.3z" />
			</g>
			<g>
				<path fill="currentColor" d="M255.4,321.8c1.4,1.6-1.1,3.9-2.5,2.2C251.4,322.4,253.9,320.1,255.4,321.8z" />
			</g>
			<g>
				<path fill="currentColor" d="M237.5,318.2c1.2,1.4,1.1,3.5-0.3,4.8c-1.4,1.2-3.5,1.1-4.8-0.3c-1.2-1.4-1.1-3.5,0.3-4.8
				C234.2,316.7,236.3,316.8,237.5,318.2z" />
			</g>
			<g>
				<path fill="currentColor" d="M245.4,334.1c0.8,0.9,0.7,2.4-0.2,3.2c-0.9,0.8-2.4,0.7-3.2-0.2c-0.8-0.9-0.7-2.4,0.2-3.2
				C243.2,333,244.6,333.1,245.4,334.1z" />
			</g>
			<g>
				<path fill="currentColor" d="M239.7,347.8c1.1,1.2-0.8,2.8-1.9,1.6C236.7,348.2,238.6,346.6,239.7,347.8z" />
			</g>
			<g>
				<path fill="currentColor" d="M227.1,331.4c0,0,0.1,0,0.1,0c1.7-0.5,3.5,1.5,2.8,3.1c0,0,0,0.1,0,0.1c-0.4,0.8-0.9,1.5-1.9,1.6
				c-0.9,0.2-1.8-0.1-2.3-0.8c-0.6-0.7-0.8-1.6-0.5-2.4C225.5,332.2,226.2,331.7,227.1,331.4z" />
			</g>
			<g>
				<path fill="currentColor" d="M220.9,347.7c0,0,0.1,0,0.1,0c0.7-0.3,1.3-0.4,2.1-0.1c0.9,0.3,1.7,1.1,1.8,2.1c0,0,0,0.1,0,0.1
				c0.4,2.1-1.6,3.9-3.7,3.2c-1-0.3-1.7-1.2-1.9-2.1C219.1,349.6,219.7,348.1,220.9,347.7z" />
			</g>
			<g>
				<path fill="currentColor" d="M215.6,356.9c0.8,0.9,0.7,2.3-0.2,3c-0.9,0.8-2.3,0.7-3-0.2c-0.8-0.9-0.7-2.3,0.2-3
				C213.4,355.9,214.8,356,215.6,356.9z" />
			</g>
			<g>
				<path fill="currentColor" d="M242.2,312c0.9-0.2,1.8,0.3,2.2,1.1c0.2,0.5,0.2,0.9,0.1,1.5c-0.2,0.5-0.6,0.9-1,1.1
				c-0.5,0.3-1.3,0.2-1.8-0.1c-0.6-0.4-0.9-1-0.8-1.7c0-0.2,0.1-0.4,0.1-0.5C241,312.7,241.5,312.1,242.2,312z" />
			</g>
			<g>
				<path fill="currentColor" d="M280,346.9c-0.3-0.4-0.4-0.9-0.2-1.4c1.9-6.9,3.2-13.9,3.9-21c0.1-0.9,0.9-1.6,1.8-1.5
				c0.9,0.1,1.6,0.9,1.5,1.8c-0.7,7.3-2.1,14.5-4,21.5c-0.2,0.9-1.2,1.4-2,1.2C280.5,347.4,280.2,347.2,280,346.9z" />
			</g>
			<g>
				<path fill="currentColor" d="M269.5,334c-0.3-0.4-0.4-0.9-0.2-1.4c1.9-6.9,3.6-14,5-21c0.2-0.9,1-1.5,1.9-1.3
				c0.9,0.2,1.5,1.1,1.3,1.9c-1.4,7.1-3.1,14.3-5,21.3c-0.2,0.9-1.2,1.4-2,1.2C270,334.5,269.7,334.3,269.5,334z" />
			</g>
			<g>
				<path fill="currentColor" d="M260.3,319.2c-0.2-0.3-0.3-0.6-0.3-1c0.2-6.7,1-13.4,2.2-19.9c0.2-0.9,1-1.5,1.9-1.3
				c0.9,0.2,1.5,1,1.3,1.9c-1.3,6.4-2,12.9-2.2,19.4c0,0.9-0.8,1.6-1.7,1.6C261.1,319.9,260.6,319.6,260.3,319.2z" />
			</g>
			<g>
				<path fill="currentColor" d="M250.2,309.1c-0.2-0.3-0.3-0.6-0.3-0.9c-0.1-5.4,0.2-10.8,1.1-16.2c0.1-0.5,0.2-1.2,0.1-1.4
				c-0.4-0.8-0.1-1.8,0.8-2.2c0.8-0.4,1.8-0.1,2.2,0.8c0.6,1.2,0.4,2.5,0.2,3.4c-0.8,5.1-1.2,10.4-1.1,15.6c0,0.9-0.7,1.7-1.6,1.7
				C251,309.9,250.5,309.6,250.2,309.1z" />
			</g>
			<g>
				<path fill="currentColor" d="M241.1,302.2c-0.4-0.5-0.4-1.2-0.1-1.8c0.2-0.3,0.2-0.9,0.2-1.3l0.1-13.7c0-0.9,0.8-1.6,1.7-1.6
				c0.9,0,1.6,0.8,1.6,1.7l-0.1,13.7c0,0.8,0,1.9-0.6,3c-0.5,0.8-1.5,1.1-2.3,0.6C241.4,302.5,241.2,302.3,241.1,302.2z" />
			</g>
		</g>
		<g>
			<g>
				<path fill="currentColor" d="M106.9,298.5c2-2.3,7.1-2.4,10.9-1.2c3.5,1.2,5.6,3.4,5.9,6.1c0.5,5.8-3.8,19.1-14.4,34.3
				c-2.8,4.1-5.6,7.7-8.4,10.9c-14.1,16.2-23.3,15.6-25.4,14.2c-1.4-1-6.1-6-6.7-10.3c-0.2-1.6,0.2-3.1,1.2-4.2l0.2-0.2
				c1.1-1.1,2.5-2,4.2-3.1c3.2-2.1,7.6-4.9,13-11.1c1.9-2.2,3.8-4.7,5.7-7.4c8-11.5,10.4-18.8,11.8-23.2c0.6-2,1.1-3.4,1.8-4.5
				C106.7,298.7,106.8,298.6,106.9,298.5z M98.3,346.4c2.7-3.1,5.4-6.6,8.2-10.6c10.8-15.5,14.2-27.7,13.8-32.1
				c-0.2-1.9-2.6-2.9-3.6-3.2c-3.2-1-6.6-0.6-7.3,0.2l0,0c-0.5,0.7-0.9,1.9-1.4,3.6c-1.5,4.6-4,12.2-12.2,24.1c-2,2.8-4,5.4-5.9,7.7
				c-5.8,6.6-10.4,9.6-13.8,11.7c-1.6,1-2.8,1.8-3.6,2.6c-0.2,0.3-0.5,0.7-0.4,1.6c0.4,3,4.3,7.3,5.3,8
				C78.6,360.7,86.2,360.3,98.3,346.4z" />
			</g>
			<g>
				<path fill="currentColor" d="M31.9,283.3c1.6-1.8,7.1-4.2,40.8,4.5c18,4.6,35.6,10.3,35.8,10.3c0.9,0.3,1.4,1.2,1.1,2.1
				c-0.3,0.9-1.2,1.4-2.1,1.1c-0.2-0.1-17.7-5.7-35.6-10.3c-34.2-8.8-37.3-5.7-37.6-5.3c-0.3,0.4-1.9,4.6,17.3,33.2
				c10.1,15,20.8,29.2,21,29.3c0.6,0.7,0.4,1.8-0.3,2.3c-0.7,0.6-1.8,0.4-2.3-0.3c-0.1-0.1-11-14.4-21.1-29.5
				c-21-31.2-18.4-35.2-17.3-36.9C31.6,283.7,31.7,283.5,31.9,283.3z" />
			</g>
			<g>
				<path fill="currentColor" d="M77.6,329.8c0.6,1.4,0.4,3.2-0.9,4.1c-0.4,0.3-0.8,0.5-1.2,0.6c-0.8,0.4-1.8,0.5-2.7,0.1
				c-1.5-0.5-2.5-2.1-2.4-3.7c0.1-1,0.5-1.9,1.3-2.5c0.7-0.6,1.7-1,2.6-0.8c0.1,0,0.1,0,0.2,0C75.8,327.8,77,328.6,77.6,329.8z" />
			</g>
			<g>
				<path fill="currentColor" d="M89.1,324.2c-1.2,1.8-4-0.1-2.8-1.9C87.6,320.5,90.4,322.4,89.1,324.2z" />
			</g>
			<g>
				<path fill="currentColor" d="M88.3,306c-1,1.5-3.2,1.9-4.7,0.9c-1.5-1-1.9-3.2-0.9-4.7c1-1.5,3.2-1.9,4.7-0.9
				C88.9,302.4,89.3,304.5,88.3,306z" />
			</g>
			<g>
				<path fill="currentColor" d="M74.8,317.5c-0.7,1-2.1,1.3-3.2,0.6c-1-0.7-1.3-2.1-0.6-3.2c0.7-1,2.1-1.3,3.2-0.6
				C75.2,315,75.5,316.5,74.8,317.5z" />
			</g>
			<g>
				<path fill="currentColor" d="M60.1,315.1c-0.9,1.3-3-0.1-2-1.4C59,312.4,61,313.8,60.1,315.1z" />
			</g>
			<g>
				<path fill="currentColor" d="M73,299C73,299.1,73,299.1,73,299c0.9,1.6-0.6,3.8-2.3,3.5c0,0-0.1,0-0.1,0
				c-0.9-0.2-1.6-0.6-2-1.4c-0.4-0.8-0.3-1.7,0.2-2.4c0.5-0.7,1.4-1.1,2.2-1.1C71.9,297.7,72.5,298.2,73,299z" />
			</g>
			<g>
				<path fill="currentColor" d="M55.7,296.9C55.7,296.9,55.7,296.9,55.7,296.9c0.5,0.7,0.8,1.3,0.7,2.1c-0.1,1-0.7,1.9-1.6,2.3
				c0,0-0.1,0-0.1,0c-1.9,0.9-4.2-0.6-4-2.8c0.1-1,0.7-1.9,1.6-2.4C53.4,295.6,55,295.8,55.7,296.9z" />
			</g>
			<g>
				<path fill="currentColor" d="M45.5,293.9c-0.7,1-2,1.2-3,0.5c-1-0.7-1.2-2-0.5-3c0.7-1,2-1.2,3-0.5
				C45.9,291.6,46.1,293,45.5,293.9z" />
			</g>
			<g>
				<path fill="currentColor" d="M95.5,309.1c0.4,0.8,0.2,1.8-0.6,2.4c-0.4,0.3-0.9,0.4-1.4,0.4c-0.6,0-1-0.3-1.4-0.7
				c-0.5-0.4-0.5-1.3-0.3-1.8c0.2-0.6,0.8-1.1,1.4-1.2c0.2,0,0.4,0,0.5,0C94.5,308,95.1,308.4,95.5,309.1z" />
			</g>
			<g>
				<path fill="currentColor" d="M70.6,354c0.3-0.4,0.8-0.6,1.3-0.6c7.1,0.2,14.3-0.2,21.3-1.2c0.9-0.1,1.7,0.5,1.9,1.4
				c0.1,0.9-0.5,1.7-1.4,1.9c-7.2,1-14.6,1.5-21.9,1.2c-0.9,0-1.6-0.8-1.6-1.7C70.2,354.7,70.4,354.3,70.6,354z" />
			</g>
			<g>
				<path fill="currentColor" d="M80.6,340.8c0.3-0.4,0.8-0.6,1.3-0.6c7.2,0.2,14.4,0.1,21.6-0.2c0.9,0,1.7,0.7,1.7,1.6
				c0,0.9-0.7,1.7-1.6,1.7c-7.3,0.3-14.6,0.4-21.9,0.2c-0.9,0-1.6-0.8-1.6-1.7C80.2,341.5,80.4,341.1,80.6,340.8z" />
			</g>
			<g>
				<path fill="currentColor" d="M92.8,328.4c0.2-0.3,0.5-0.5,0.9-0.5c6.5-1.4,13.2-2.3,19.9-2.6c0.9,0,1.7,0.7,1.7,1.6
				c0,0.9-0.7,1.7-1.6,1.7c-6.5,0.3-13,1.1-19.4,2.5c-0.9,0.2-1.8-0.4-2-1.3C92.3,329.3,92.4,328.8,92.8,328.4z" />
			</g>
			<g>
				<path fill="currentColor" d="M100.1,316.1c0.2-0.2,0.5-0.4,0.8-0.5c5.2-1.4,10.6-2.4,16-2.8c0.5,0,1.2-0.1,1.4-0.3
				c0.7-0.6,1.7-0.5,2.3,0.2c0.6,0.7,0.5,1.8-0.2,2.3c-1,0.9-2.3,1-3.3,1.1c-5.2,0.4-10.4,1.3-15.4,2.7c-0.9,0.2-1.8-0.3-2-1.2
				C99.6,317.1,99.8,316.5,100.1,316.1z" />
			</g>
			<g>
				<path fill="currentColor" d="M104.7,305.6c0.4-0.5,1.1-0.7,1.7-0.5c0.3,0.1,0.9,0,1.3-0.2l13.4-3.1c0.9-0.2,1.8,0.3,2,1.2
				c0.2,0.9-0.3,1.8-1.2,2l-13.4,3.1c-0.8,0.2-1.9,0.4-3,0.1c-0.9-0.3-1.4-1.2-1.1-2.1C104.4,306,104.6,305.8,104.7,305.6z" />
			</g>
		</g>
		<g>
			<g>
				<path fill="currentColor" d="M27.9,32.8c-2.6-1.5-3.7-6.5-3.2-10.4c0.5-3.7,2.2-6.2,4.8-6.9c5.6-1.6,19.4,0.1,36.4,7.5
				c4.5,2,8.7,4,12.3,6.1C96.8,39.8,98,48.9,97,51.3c-0.7,1.5-4.7,7.2-8.8,8.5c-1.6,0.5-3,0.4-4.3-0.3l-0.2-0.1
				c-1.3-0.8-2.4-2-3.9-3.5c-2.6-2.8-6.3-6.5-13.4-10.7C63.8,43.7,61,42.3,58,41c-12.8-5.6-20.5-6.5-25-7.1c-2.1-0.3-3.6-0.4-4.7-1
				C28.1,32.9,28,32.9,27.9,32.8z M76.5,31.9c-3.5-2-7.5-4-12-6c-17.3-7.6-29.9-8.6-34.2-7.4c-1.8,0.5-2.3,3.1-2.5,4.1
				c-0.4,3.3,0.7,6.6,1.6,7.2l0,0c0.7,0.3,2,0.5,3.8,0.7c4.8,0.6,12.7,1.6,26,7.3c3.1,1.4,6.1,2.8,8.7,4.3
				c7.6,4.4,11.4,8.3,14.2,11.2c1.3,1.3,2.3,2.4,3.3,3c0.4,0.2,0.8,0.4,1.7,0.1c2.9-1,6.4-5.6,6.8-6.7
				C94.3,48.5,92.5,41.1,76.5,31.9z" />
			</g>
			<g>
				<path fill="currentColor" d="M27.5,109.3c-2.1-1.2-5.5-6.1-3.5-40.9c1.1-18.6,3.2-36.9,3.2-37.1c0.1-0.9,0.9-1.6,1.8-1.5
				c0.9,0.1,1.6,0.9,1.5,1.8c0,0.2-2.1,18.5-3.2,36.9c-2.1,35.2,1.6,37.7,2,37.9c0.4,0.2,4.9,1,29.3-23.4
				C71.3,70.4,83.2,57,83.3,56.9c0.6-0.7,1.7-0.7,2.3-0.1c0.7,0.6,0.7,1.7,0.1,2.3c-0.1,0.1-12,13.5-24.8,26.4
				c-26.6,26.6-31,24.9-32.9,24.1C27.9,109.5,27.7,109.4,27.5,109.3z" />
			</g>
			<g>
				<path fill="currentColor" d="M64.3,55.5c1.2-0.9,3.1-1,4.2,0.1c0.3,0.3,0.6,0.7,0.8,1.1c0.5,0.7,0.8,1.7,0.7,2.6
				c-0.2,1.6-1.5,2.9-3.2,3.1c-1,0.1-1.9-0.2-2.7-0.8c-0.7-0.5-1.3-1.5-1.3-2.4c0-0.1,0-0.1,0-0.2C62.6,57.7,63.2,56.3,64.3,55.5z" />
			</g>
			<g>
				<path fill="currentColor" d="M56.5,45.3c2,0.9,0.6,4-1.4,3.1C53.1,47.5,54.5,44.4,56.5,45.3z" />
			</g>
			<g>
				<path fill="currentColor" d="M38.8,49.6c1.7,0.7,2.5,2.8,1.7,4.4c-0.7,1.7-2.8,2.5-4.4,1.7c-1.7-0.7-2.5-2.8-1.7-4.4
				C35.1,49.6,37.1,48.8,38.8,49.6z" />
			</g>
			<g>
				<path fill="currentColor" d="M52.7,60.6c1.1,0.5,1.7,1.9,1.2,3c-0.5,1.1-1.9,1.7-3,1.2c-1.1-0.5-1.7-1.9-1.2-3
				C50.2,60.6,51.5,60.1,52.7,60.6z" />
			</g>
			<g>
				<path fill="currentColor" d="M53.2,75.5c1.5,0.6,0.5,2.9-1,2.3C50.8,77.1,51.7,74.8,53.2,75.5z" />
			</g>
			<g>
				<path fill="currentColor" d="M34.9,65.9C35,65.9,35,65.9,34.9,65.9c1.4-1.2,3.9-0.1,3.9,1.6c0,0,0,0.1,0,0.1
				c0,0.9-0.2,1.7-1,2.3c-0.7,0.5-1.6,0.6-2.4,0.3c-0.8-0.3-1.4-1.1-1.5-2C33.8,67.3,34.2,66.5,34.9,65.9z" />
			</g>
			<g>
				<path fill="currentColor" d="M36.1,83.3C36.2,83.3,36.2,83.3,36.1,83.3c0.6-0.6,1.1-1,1.9-1.1c1-0.1,2,0.3,2.5,1.1
				c0,0,0,0.1,0.1,0.1c1.2,1.7,0.2,4.2-2,4.5c-1,0.1-2-0.3-2.6-1.1C35.3,85.8,35.3,84.2,36.1,83.3z" />
			</g>
			<g>
				<path fill="currentColor" d="M35.2,93.9c1.1,0.5,1.6,1.8,1.1,2.8c-0.5,1.1-1.8,1.6-2.8,1.1c-1.1-0.5-1.6-1.8-1.1-2.8
				C32.9,93.9,34.2,93.4,35.2,93.9z" />
			</g>
			<g>
				<path fill="currentColor" d="M40.4,41.9c0.7-0.5,1.8-0.5,2.4,0.1c0.4,0.4,0.6,0.8,0.7,1.3c0.1,0.6-0.2,1-0.4,1.5
				c-0.3,0.5-1.1,0.8-1.7,0.7c-0.7-0.1-1.2-0.5-1.5-1.2c-0.1-0.2-0.1-0.3-0.1-0.5C39.6,43.1,39.9,42.4,40.4,41.9z" />
			</g>
			<g>
				<path fill="currentColor" d="M89.4,57.6c-0.4-0.2-0.7-0.7-0.8-1.2c-1.2-7-2.9-14-5.3-20.7c-0.3-0.9,0.2-1.8,1-2.1
				c0.9-0.3,1.8,0.2,2.1,1c2.4,6.9,4.2,14,5.4,21.2c0.2,0.9-0.5,1.8-1.4,1.9C90.1,57.9,89.7,57.8,89.4,57.6z" />
			</g>
			<g>
				<path fill="currentColor" d="M74.5,50.4c-0.4-0.2-0.7-0.7-0.8-1.2C72.5,42.1,71,35,69.3,28.1c-0.2-0.9,0.3-1.8,1.2-2
				c0.9-0.2,1.8,0.3,2,1.2c1.7,7,3.2,14.3,4.4,21.4c0.1,0.9-0.5,1.8-1.4,1.9C75.2,50.7,74.8,50.6,74.5,50.4z" />
			</g>
			<g>
				<path fill="currentColor" d="M59.9,40.9c-0.3-0.2-0.5-0.4-0.7-0.8c-2.6-6.1-4.8-12.5-6.4-19c-0.2-0.9,0.3-1.8,1.2-2
				c0.9-0.2,1.8,0.3,2,1.2c1.5,6.3,3.6,12.5,6.2,18.5c0.4,0.8,0,1.8-0.9,2.2C60.9,41.2,60.4,41.1,59.9,40.9z" />
			</g>
			<g>
				<path fill="currentColor" d="M46.5,36c-0.3-0.2-0.5-0.4-0.7-0.7c-2.4-4.8-4.4-9.9-5.8-15.1c-0.1-0.5-0.3-1.1-0.6-1.3
				c-0.7-0.6-0.8-1.6-0.2-2.3c0.6-0.7,1.6-0.8,2.3-0.2c1.1,0.9,1.4,2.1,1.7,3c1.4,5,3.3,9.9,5.6,14.6c0.4,0.8,0.1,1.8-0.7,2.2
				C47.5,36.3,46.9,36.3,46.5,36z" />
			</g>
			<g>
				<path fill="currentColor" d="M35.2,33.5c-0.5-0.3-0.9-0.9-0.8-1.6c0-0.3-0.2-0.9-0.4-1.3l-5.7-12.5c-0.4-0.8,0-1.8,0.8-2.2
				c0.8-0.4,1.8,0,2.2,0.8L37,29.3c0.3,0.7,0.8,1.8,0.7,3c-0.1,0.9-0.9,1.6-1.8,1.5C35.7,33.7,35.4,33.6,35.2,33.5z" />
			</g>
		</g>
		<g>
			<g>
				<path fill="currentColor" d="M233.8,31.4c-0.4-3,2.8-7,6.2-9c3.2-1.9,6.2-2.1,8.4-0.5c4.7,3.4,12,15.3,16.7,33.2
				c1.3,4.8,2.2,9.3,2.8,13.4c3.2,21.2-3.2,27.9-5.7,28.6c-1.6,0.4-8.6,0.7-12.2-1.6c-1.4-0.9-2.2-2.1-2.4-3.6l0-0.2
				c-0.2-1.5,0.1-3.2,0.4-5.2c0.5-3.8,1.2-9,0-17.1c-0.4-2.9-1.1-6-1.9-9.2c-3.6-13.5-7.6-20.1-10-24c-1.1-1.8-1.9-3.1-2.2-4.3
				C233.9,31.7,233.8,31.6,233.8,31.4z M264.7,69.1c-0.6-4-1.5-8.4-2.8-13.1c-4.8-18.3-11.9-28.8-15.5-31.4
				c-1.5-1.1-3.8,0.1-4.8,0.6c-2.9,1.7-4.8,4.7-4.6,5.7l0,0c0.2,0.8,0.9,1.9,1.8,3.4c2.5,4.1,6.7,10.9,10.4,24.9
				c0.9,3.3,1.5,6.5,2,9.5c1.3,8.7,0.5,14.1,0,18.1c-0.3,1.8-0.5,3.3-0.3,4.4c0.1,0.4,0.2,0.9,1,1.4c2.5,1.7,8.3,1.5,9.5,1.2
				C262.7,93.3,267.4,87.2,264.7,69.1z" />
			</g>
			<g>
				<path fill="currentColor" d="M173.6,78.6c-0.4-2.4,1.4-8.1,29.9-28.1c15.2-10.7,30.9-20.4,31.1-20.5c0.8-0.5,1.8-0.2,2.3,0.5
				c0.5,0.8,0.2,1.8-0.5,2.3c-0.2,0.1-15.8,9.8-30.9,20.4c-28.9,20.3-28.6,24.7-28.5,25.1c0.1,0.4,2.3,4.5,36.5,8.4
				c17.9,2.1,35.7,3.1,35.9,3.1c0.9,0.1,1.6,0.8,1.6,1.7c-0.1,0.9-0.8,1.6-1.7,1.6c-0.2,0-18.1-1-36.1-3.1
				c-37.4-4.3-38.7-8.8-39.3-10.8C173.7,79.1,173.7,78.9,173.6,78.6z" />
			</g>
			<g>
				<path fill="currentColor" d="M238.6,74.1c1.4,0.4,2.7,1.8,2.6,3.4c0,0.5-0.2,0.9-0.4,1.3c-0.3,0.9-0.8,1.7-1.6,2.1
				c-1.4,0.8-3.2,0.6-4.4-0.6c-0.7-0.7-1.1-1.6-1.1-2.6c0-0.9,0.4-1.9,1.1-2.5c0,0,0.1-0.1,0.1-0.1
				C235.9,74.1,237.3,73.7,238.6,74.1z" />
			</g>
			<g>
				<path fill="currentColor" d="M241.8,61.6c0.6,2.1-2.7,3-3.3,0.9C238,60.4,241.3,59.5,241.8,61.6z" />
			</g>
			<g>
				<path fill="currentColor" d="M227.5,50.4c0.5,1.8-0.6,3.7-2.4,4.1c-1.8,0.5-3.7-0.6-4.1-2.4c-0.5-1.8,0.6-3.7,2.4-4.1
				C225.1,47.6,227,48.7,227.5,50.4z" />
			</g>
			<g>
				<path fill="currentColor" d="M227.4,68.2c0.3,1.2-0.4,2.5-1.6,2.8c-1.2,0.3-2.5-0.4-2.8-1.6c-0.3-1.2,0.4-2.5,1.6-2.8
				C225.8,66.2,227.1,67,227.4,68.2z" />
			</g>
			<g>
				<path fill="currentColor" d="M216.1,77.8c0.4,1.6-2,2.2-2.4,0.6C213.3,76.9,215.7,76.2,216.1,77.8z" />
			</g>
			<g>
				<path fill="currentColor" d="M212.2,57.5c0,0,0.1,0,0.1,0c1.7,0.3,2.4,2.9,1.1,4c0,0-0.1,0-0.1,0.1c-0.7,0.6-1.5,0.9-2.4,0.6
				c-0.8-0.2-1.5-0.9-1.7-1.7c-0.2-0.8,0-1.8,0.6-2.4C210.5,57.5,211.3,57.4,212.2,57.5z" />
			</g>
			<g>
				<path fill="currentColor" d="M199.3,69.3c0,0,0.1,0,0.1,0c0.7,0.1,1.4,0.3,1.9,0.8c0.7,0.7,1,1.7,0.7,2.7c0,0,0,0.1,0,0.1
				c-0.6,2-3.2,2.8-4.7,1.3c-0.7-0.7-1-1.8-0.7-2.8C196.9,70.2,198.1,69.2,199.3,69.3z" />
			</g>
			<g>
				<path fill="currentColor" d="M190.5,75.2c0.3,1.1-0.4,2.3-1.5,2.6c-1.1,0.3-2.3-0.4-2.6-1.5c-0.3-1.1,0.4-2.3,1.5-2.6
				C189,73.3,190.2,74,190.5,75.2z" />
			</g>
			<g>
				<path fill="currentColor" d="M234.4,47c0.8,0.2,1.5,1.1,1.4,2c0,0.5-0.2,0.9-0.6,1.3c-0.4,0.4-0.9,0.5-1.4,0.6
				c-0.6,0.1-1.3-0.4-1.6-0.9c-0.3-0.6-0.3-1.3,0-1.9c0.1-0.2,0.2-0.3,0.3-0.4C233,47.1,233.7,46.8,234.4,47z" />
			</g>
			<g>
				<path fill="currentColor" d="M252.5,95.1c-0.1-0.5,0.1-1,0.4-1.4c4.8-5.3,9.1-11,12.9-17c0.5-0.8,1.5-1,2.3-0.5
				c0.8,0.5,1,1.5,0.5,2.3c-3.9,6.2-8.4,12-13.3,17.5c-0.6,0.7-1.7,0.7-2.3,0.1C252.8,95.8,252.6,95.4,252.5,95.1z" />
			</g>
			<g>
				<path fill="currentColor" d="M249,78.9c-0.1-0.5,0.1-1,0.4-1.4c4.8-5.3,9.5-10.9,13.9-16.6c0.6-0.7,1.6-0.9,2.3-0.3
				c0.7,0.6,0.9,1.6,0.3,2.3c-4.5,5.7-9.2,11.4-14.1,16.7c-0.6,0.7-1.7,0.7-2.3,0.1C249.2,79.6,249,79.3,249,78.9z" />
			</g>
			<g>
				<path fill="currentColor" d="M247.4,61.6c-0.1-0.3,0-0.7,0.2-1c3.2-5.9,6.9-11.5,11-16.8c0.6-0.7,1.6-0.9,2.3-0.3
				c0.7,0.6,0.9,1.6,0.3,2.3c-4,5.1-7.6,10.6-10.7,16.3c-0.4,0.8-1.4,1.1-2.2,0.7C247.8,62.5,247.5,62.1,247.4,61.6z" />
			</g>
			<g>
				<path fill="currentColor" d="M242.8,48c0-0.3,0-0.6,0.1-0.9c2.3-4.9,5.1-9.6,8.2-14c0.3-0.4,0.7-1,0.7-1.3
				c0-0.9,0.8-1.6,1.7-1.6c0.9,0,1.6,0.8,1.6,1.7c0,1.4-0.8,2.4-1.3,3.2c-3,4.2-5.7,8.7-7.9,13.4c-0.4,0.8-1.4,1.2-2.2,0.8
				C243.2,49,242.9,48.5,242.8,48z" />
			</g>
			<g>
				<path fill="currentColor" d="M237.8,37.7c-0.1-0.6,0.2-1.3,0.7-1.6c0.3-0.2,0.5-0.7,0.8-1.1l6.3-12.2c0.4-0.8,1.4-1.1,2.2-0.7
				c0.8,0.4,1.1,1.4,0.7,2.2l-6.3,12.2c-0.4,0.7-0.9,1.7-1.9,2.4c-0.8,0.5-1.8,0.3-2.3-0.5C237.9,38.1,237.8,37.9,237.8,37.7z" />
			</g>
		</g>
	</g>
</svg>