<svg version="1.1" id="PizzaLogo" xmlns="http://www.w3.org/2000/svg" xmlns:xlink="http://www.w3.org/1999/xlink" x="0px" y="0px" viewBox="0 0 512 512" style="enable-background:new 0 0 512 512;" xml:space="preserve">
	<g>
		<g>
			<path fill="currentColor" d="M502.8,362c-12.1-12.1-31.8-12.1-43.9,0c-77.9,78-175.1,84.1-202.9,84.1c-110.4,0-183.2-64.3-202.9-84
			c-12.1-12.1-31.8-12.1-43.9,0S-3,393.9,9.1,406c15,15,40.4,37.1,76.6,57.3c53.2,29.8,110.6,44.9,170.3,44.9
			c21.2,0,54.9-2.3,94.7-13.6c58.7-16.6,110-46.4,152.2-88.6C515,393.8,515,374.2,502.8,362z" />
		</g>
		<g>
			<path fill="currentColor" d="M255.9,427.5c112.5-0.5,186.8-74.8,202.6-91.5c-17.2-33-41.8-73-76.6-114c-37.9-44.7-77-77.7-110-101.5
			l9.9-15.9c2.5-4.1,2.5-9.1,0-13.1l-26.9-43c2.8-4.5,4.5-9.9,4.5-15.5c0-16.2-13.1-29.3-29.3-29.3S200.9,16.8,200.9,33
			s13.1,29.3,29.3,29.3c1.3,0,2.6-0.1,3.9-0.3l22.6,36.2l-11.8,19.1c-33.9,24.2-74.7,58.2-114.3,104.9c-34.9,41.1-59.6,80.9-77,114
			l0,0l0,0C133.6,429.1,255.9,427.5,255.9,427.5z M316.9,230.3c25.3,0,45.8,20.5,45.8,45.8S342.2,322,316.9,322
			s-45.8-20.5-45.8-45.8S291.6,230.3,316.9,230.3z M195,230.3c25.3,0,45.8,20.5,45.8,45.8S220.3,322,195,322s-45.8-20.5-45.8-45.8
			S169.7,230.3,195,230.3z" />
		</g>
	</g>
</svg>