<svg version="1.1" id="Pizza" xmlns="http://www.w3.org/2000/svg" xmlns:xlink="http://www.w3.org/1999/xlink" x="0px" y="0px"
	 viewBox="0 0 512 512" enable-background="new 0 0 512 512" xml:space="preserve">
<g>
	<g>
		<path fill="currentColor" d="M144.1,189.5c-9.1,0-16.6,7.6-16.6,16.6s7.6,16.6,16.6,16.6c9.1,0,16.6-7.6,16.6-16.6
			S153.2,189.5,144.1,189.5z"/>
	</g>
	<g>
		<path fill="currentColor" d="M148,134.6c-0.3-1.7-2.1-3.5-3.8-3.8c-0.8-0.2-1.6-0.3-2.4-0.2c-4.2,0.5-7.4,3.8-6.2,8.2
			c0.1,0.2,0.1,0.4,0.2,0.6c0.5,1.8,1.9,3.3,3.7,3.7l0.6,0.2c4.4,1.1,7.7-2.1,8.2-6.2C148.3,136.2,148.1,135.4,148,134.6z"/>
	</g>
	<g>
		<path fill="currentColor" d="M234.8,80.2c-7.8,0-14.3,6.5-14.3,14.3c0,7.8,6.5,14.3,14.3,14.3c7.8,0,14.3-6.5,14.3-14.3
			C249.1,86.7,242.6,80.2,234.8,80.2z"/>
	</g>
	<g>
		<path fill="currentColor" d="M219.8,178.4c-0.1-0.9-0.2-1.8-0.3-2.6c-0.1-0.5-0.4-1.8-0.1,0.3c-0.3-1.9-0.6-3.5-1.6-5.2
			c-1-1.9-3.2-3-5.3-3c-2.1,0-3.7,1-4.8,2.5c-2.4,1-4,3.4-4.9,5.7l-0.2,0.4c-1,2.8,0.2,6.2,2.2,8.2c2.8,2.8,6.8,3,10.3,1.3
			c0.1-0.1,0.3-0.1,0.4-0.2C217.9,184.6,220.1,181.1,219.8,178.4z"/>
	</g>
	<g>
		<path fill="currentColor" d="M281.8,203.1c-0.1-0.1-0.2-0.1-0.3-0.2c-8.3-4.5-19-0.6-21.5,8.8c-1,3.8-0.5,7.9,1.5,11.3
			c2.7,4.7,7.4,7,12.7,7.3l0.3,0c6.4,0.4,12.4-4.7,14.1-10.7C290.2,213.4,287.5,206.2,281.8,203.1z"/>
	</g>
	<g>
		<path fill="currentColor" d="M307.3,155.7c-8.9,0-8.9,13.8,0,13.8C316.2,169.5,316.2,155.7,307.3,155.7z"/>
	</g>
	<g>
		<path fill="currentColor" d="M321,86.1c-2-3.5-5.9-5.7-9.9-5.7c-3,0-6,1.2-8.1,3.4c-3.1,3.1-3.7,7-2.9,11.2c0,0.2,0.1,0.4,0.1,0.6
			c0.9,4.9,6.2,8.3,10.9,8.3c4.7,0,10-3.4,10.9-8.3c0-0.2,0.1-0.4,0.1-0.6C322.7,91.8,322.6,89,321,86.1z"/>
	</g>
	<g>
		<path fill="currentColor" d="M385.7,142c-0.6-2.2-2-4.7-4.1-5.7c-0.9-0.4-1.7-0.8-2.7-1.1c-9.4-2.5-16.4,9.3-9.5,16.3
			C376.4,158.4,388.2,151.4,385.7,142z"/>
	</g>
	<g>
		<path fill="currentColor" d="M386,201c-9.1,0-16.6,7.6-16.6,16.6c0,9.1,7.6,16.6,16.6,16.6s16.6-7.6,16.6-16.6
			C402.7,208.5,395.1,201,386,201z"/>
	</g>
	<g>
		<g>
			<path fill="currentColor" d="M432.5,203.3c0,0,0-0.1,0-0.2c0,0,0,0,0-0.1c-0.1-0.3-0.2-0.5-0.3-0.7c0.1,0.2,0.2,0.4,0.3,0.6
				c-0.2-1.6-0.7-3.1-1.4-4.6c-1.2-2.7-3.8-4.2-6.4-5.3c-1.4-0.6-3-0.5-4.4,0c-5.9,0.7-10.6,5.9-10,12.1c0.4,4,2,7.1,5.3,9.4
				c0.8,0.6,1.8,0.9,2.7,1.2c0.1,0,0.2,0.1,0.3,0.1c-2.3-1-2.1-0.9,0.6,0.2c1.2,0.5,2.6,0.7,3.9,0.5c3.6-0.4,6.8-1.7,8.7-5
				C433.2,209.2,433.5,206,432.5,203.3z"/>
		</g>
		<g>
			<path fill="currentColor" d="M432.5,202.9c0,0.1,0,0.2,0,0.3C432.7,203.8,432.8,203.6,432.5,202.9z"/>
		</g>
	</g>
	<g>
		<path fill="currentColor" d="M195.6,216.1c-9,0-9,14,0,14S204.7,216.1,195.6,216.1z"/>
	</g>
	<g>
		<path fill="currentColor" d="M82.1,201.4c-6.1,0-6.1,9.4,0,9.4C88.2,210.8,88.2,201.4,82.1,201.4z"/>
	</g>
	<g>
		<path fill="currentColor" d="M368.2,322.8c9.1,0,16.6-7.6,16.6-16.6c0-9.1-7.6-16.6-16.6-16.6c-9.1,0-16.6,7.6-16.6,16.6
			C351.6,315.2,359.2,322.8,368.2,322.8z"/>
	</g>
	<g>
		<path fill="currentColor" d="M364.4,377.6c0.3,1.7,2.1,3.5,3.8,3.8c0.8,0.2,1.6,0.3,2.4,0.2c4.2-0.5,7.4-3.8,6.2-8.2
			c-0.1-0.2-0.1-0.4-0.2-0.6c-0.5-1.8-1.9-3.3-3.7-3.7l-0.6-0.2c-4.4-1.1-7.7,2.1-8.2,6.2C364.1,376,364.3,376.8,364.4,377.6z"/>
	</g>
	<g>
		<path fill="currentColor" d="M277.6,432c7.8,0,14.3-6.5,14.3-14.3c0-7.8-6.5-14.3-14.3-14.3s-14.3,6.5-14.3,14.3
			C263.3,425.5,269.8,432,277.6,432z"/>
	</g>
	<g>
		<path fill="currentColor" d="M292.6,333.9c0.1,0.9,0.2,1.8,0.3,2.6c0.1,0.5,0.4,1.8,0.1-0.3c0.3,1.9,0.6,3.5,1.6,5.2c1,1.9,3.2,3,5.3,3
			c2.1,0,3.7-1,4.8-2.5c2.4-1,4-3.4,4.9-5.7l0.2-0.4c1-2.8-0.2-6.2-2.2-8.2c-2.8-2.8-6.8-3-10.3-1.3c-0.1,0.1-0.3,0.1-0.4,0.2
			C294.5,327.6,292.3,331.1,292.6,333.9z"/>
	</g>
	<g>
		<path fill="currentColor" d="M230.6,309.2c0.1,0.1,0.2,0.1,0.3,0.2c8.3,4.5,19,0.6,21.5-8.8c1-3.8,0.5-7.9-1.5-11.3
			c-2.7-4.7-7.4-7-12.7-7.3l-0.3,0c-6.4-0.4-12.4,4.7-14.1,10.7C222.2,298.8,224.9,306,230.6,309.2z"/>
	</g>
	<g>
		<path fill="currentColor" d="M205.1,356.6c8.9,0,8.9-13.8,0-13.8C196.2,342.7,196.2,356.6,205.1,356.6z"/>
	</g>
	<g>
		<path fill="currentColor" d="M191.4,426.1c2,3.5,5.9,5.7,9.9,5.7c3,0,6-1.2,8.1-3.4c3.1-3.1,3.7-7,2.9-11.2c0-0.2-0.1-0.4-0.1-0.6
			c-0.9-4.9-6.2-8.3-10.9-8.3c-4.7,0-10,3.4-10.9,8.3c0,0.2-0.1,0.4-0.1,0.6C189.7,420.4,189.8,423.3,191.4,426.1z"/>
	</g>
	<g>
		<path fill="currentColor" d="M126.6,370.2c0.6,2.2,2,4.7,4.1,5.7c0.9,0.4,1.7,0.8,2.7,1.1c9.4,2.5,16.4-9.3,9.5-16.3
			C136,353.8,124.1,360.8,126.6,370.2z"/>
	</g>
	<g>
		<path fill="currentColor" d="M126.3,311.3c9.1,0,16.6-7.6,16.6-16.6c0-9.1-7.6-16.6-16.6-16.6s-16.6,7.6-16.6,16.6
			C109.7,303.7,117.3,311.3,126.3,311.3z"/>
	</g>
	<g>
		<g>
			<path fill="currentColor" d="M79.8,308.9c0,0,0,0.1,0,0.2c0,0,0,0,0,0.1c0.1,0.3,0.2,0.5,0.3,0.7c-0.1-0.2-0.2-0.4-0.3-0.6
				c0.2,1.6,0.7,3.1,1.4,4.6c1.2,2.7,3.8,4.2,6.4,5.3c1.4,0.6,3,0.5,4.4,0c5.9-0.7,10.6-5.9,10-12.1c-0.4-4-2-7.1-5.3-9.4
				c-0.8-0.6-1.8-0.9-2.7-1.2c-0.1,0-0.2-0.1-0.3-0.1c2.3,1,2.1,0.9-0.6-0.2c-1.2-0.5-2.6-0.7-3.9-0.5c-3.6,0.4-6.8,1.7-8.7,5
				C79.2,303,78.9,306.2,79.8,308.9z"/>
		</g>
		<g>
			<path fill="currentColor" d="M79.9,309.3c0-0.1,0-0.2,0-0.3C79.6,308.5,79.6,308.6,79.9,309.3z"/>
		</g>
	</g>
	<g>
		<path fill="currentColor" d="M316.8,296.1c9,0,9-14,0-14S307.7,296.1,316.8,296.1z"/>
	</g>
	<g>
		<path fill="currentColor" d="M430.3,310.8c6.1,0,6.1-9.4,0-9.4S424.2,310.8,430.3,310.8z"/>
	</g>
	<path fill="currentColor" d="M256.2,8.1c136.7,0,248,111.2,248,248s-111.2,248-248,248s-248-111.2-248-248S119.5,8.1,256.2,8.1
		 M256.2,0.3C114.9,0.3,0.4,114.8,0.4,256.1s114.5,255.8,255.8,255.8c141.3,0,255.8-114.5,255.8-255.8S397.5,0.3,256.2,0.3
		L256.2,0.3z"/>
	<path fill="currentColor" d="M256.2,44.1c116.9,0,212,95.1,212,212s-95.1,212-212,212c-116.9,0-212-95.1-212-212S139.3,44.1,256.2,44.1
		 M256.2,36.3c-121.4,0-219.8,98.4-219.8,219.8S134.8,476,256.2,476C377.6,476,476,377.5,476,256.1S377.6,36.3,256.2,36.3
		L256.2,36.3z"/>
</g>
</svg>
